<?xml version="1.0" encoding="utf-8"?>
<!-- Generator: Adobe Illustrator 17.1.0, SVG Export Plug-In . SVG Version: 6.00 Build 0)  -->
<!DOCTYPE svg PUBLIC "-//W3C//DTD SVG 1.1//EN" "http://www.w3.org/Graphics/SVG/1.1/DTD/svg11.dtd">
<svg version="1.1" id="Final_Bot__x26__Logo" xmlns="http://www.w3.org/2000/svg" xmlns:xlink="http://www.w3.org/1999/xlink"
	 x="0px" y="0px" viewBox="54.753 18.5 44.631 46.104" enable-background="new 54.753 18.5 44.631 46.104" xml:space="preserve">
<g>
	<path id="Square" fill="#2C7EAE" d="M92.712,62.384c0,1.221-0.999,2.22-2.22,2.22h-33.52c-1.221,0-2.22-0.999-2.22-2.22V28.113
		c0-1.221,0.999-2.22,2.22-2.22h33.52c1.221,0,2.22,0.999,2.22,2.22V62.384z"/>
	<path id="Conference" fill="#4EC1E0" d="M66.618,60.621l-2.064-1.597c-0.053-0.042-0.108-0.063-0.166-0.063
		c-0.06,0-0.108,0.022-0.148,0.067c-0.039,0.044-0.059,0.104-0.059,0.177v2.116h0.461v-1.645l2.065,1.597
		c0.055,0.043,0.111,0.064,0.168,0.064c0.058,0,0.107-0.023,0.145-0.066c0.039-0.045,0.06-0.104,0.06-0.179v-2.122h-0.462
		L66.618,60.621L66.618,60.621z M62.79,58.971h-0.824c-0.249,0-0.463,0.029-0.642,0.088c-0.263,0.089-0.394,0.235-0.394,0.436V60.8
		c0,0.187,0.134,0.327,0.404,0.42c0.193,0.067,0.404,0.102,0.633,0.102h0.824c0.242,0,0.455-0.031,0.639-0.093
		c0.266-0.091,0.398-0.235,0.398-0.429v-1.304C63.827,59.145,63.482,58.971,62.79,58.971z M63.366,60.682
		c0,0.119-0.191,0.178-0.576,0.178h-0.824c-0.375,0-0.563-0.059-0.563-0.178v-1.065c0-0.123,0.188-0.185,0.563-0.185h0.824
		c0.385,0,0.576,0.061,0.576,0.185V60.682z M58.053,59.069c-0.267,0.093-0.401,0.236-0.401,0.427V60.8
		c0,0.204,0.135,0.35,0.404,0.436c0.176,0.057,0.388,0.086,0.634,0.086h1.861V60.86h-1.861c-0.375,0-0.563-0.067-0.563-0.204v-0.974
		c0-0.167,0.188-0.251,0.563-0.251h1.861v-0.461h-1.861C58.453,58.971,58.241,59.003,58.053,59.069z M82.855,60.621l-2.065-1.597
		c-0.053-0.042-0.109-0.063-0.165-0.063c-0.06,0-0.108,0.022-0.148,0.067c-0.039,0.044-0.058,0.104-0.058,0.177v2.116h0.46v-1.645
		l2.065,1.597c0.055,0.043,0.111,0.064,0.169,0.064c0.057,0,0.105-0.023,0.144-0.066c0.04-0.045,0.06-0.104,0.06-0.179v-2.122
		h-0.462L82.855,60.621L82.855,60.621z M84.107,59.069c-0.267,0.093-0.401,0.236-0.401,0.427V60.8c0,0.204,0.135,0.35,0.404,0.436
		c0.176,0.057,0.388,0.086,0.633,0.086h1.861V60.86h-1.861c-0.375,0-0.563-0.067-0.563-0.204v-0.974
		c0-0.167,0.188-0.251,0.563-0.251h1.861v-0.461h-1.861C84.507,58.971,84.296,59.003,84.107,59.069z M89.813,59.432v-0.461h-2.837
		v2.351h2.837V60.86h-2.376v-0.69h2.376v-0.462h-2.376v-0.277L89.813,59.432L89.813,59.432z M76.037,60.52
		c0.168,0,0.322-0.035,0.46-0.103c0.173-0.084,0.26-0.201,0.26-0.351v-0.57c0-0.228-0.127-0.38-0.382-0.459
		c-0.142-0.045-0.358-0.066-0.651-0.066h-1.865v2.351h0.462v-0.802h0.276l1.483,0.802h0.896l-1.516-0.802L76.037,60.52L76.037,60.52
		z M74.32,60.065v-0.634h1.403c0.381,0,0.572,0.05,0.572,0.152v0.348c0,0.045-0.034,0.078-0.101,0.101
		c-0.051,0.019-0.102,0.029-0.153,0.029L74.32,60.065z M70.63,61.322h2.881V60.86h-2.419v-0.69h2.419v-0.462h-2.419v-0.277h2.419
		v-0.461H70.63V61.322z M77.181,61.322h2.898V60.86h-2.437v-0.69h2.437v-0.462h-2.437v-0.277h2.437v-0.461h-2.898V61.322z
		 M67.429,61.322h0.462V60.17h2.433v-0.462h-2.433v-0.277h2.433v-0.461h-2.895V61.322z"/>
	<path id="Ruby" fill="#FDB525" d="M63.239,55.171c0.433,0,0.827-0.089,1.184-0.266c0.444-0.214,0.665-0.515,0.665-0.901v-1.461
		c0-0.581-0.325-0.974-0.979-1.175c-0.364-0.114-0.922-0.172-1.673-0.172h-4.784v6.033h1.184v-2.057h0.71l3.804,2.057h2.3
		l-3.89-2.057C61.759,55.171,63.239,55.171,63.239,55.171z M58.835,54.004v-1.624h3.6c0.979,0,1.469,0.13,1.469,0.39v0.893
		c0,0.114-0.086,0.2-0.26,0.26c-0.131,0.049-0.262,0.073-0.392,0.073L58.835,54.004z M72.155,55.571c0,0.315-0.49,0.473-1.468,0.473
		h-2.124c-0.984,0-1.476-0.158-1.476-0.473v-4.376h-1.184v4.694c0,0.463,0.348,0.819,1.045,1.069c0.506,0.18,1.045,0.27,1.615,0.27
		h2.124c1.767,0,2.652-0.446,2.652-1.339v-4.694h-1.184V55.571z M80.614,51.432c-0.473-0.164-1.02-0.245-1.64-0.245h-4.776v6.041
		h4.735c0.609,0,1.159-0.083,1.648-0.245c0.702-0.239,1.053-0.604,1.053-1.094v-0.938c0-0.169-0.052-0.322-0.155-0.458
		c-0.125-0.163-0.293-0.261-0.506-0.294c0.44-0.119,0.661-0.383,0.661-0.792v-0.873C81.635,52.033,81.295,51.666,80.614,51.432z
		 M80.419,55.603c0,0.294-0.496,0.441-1.486,0.441h-3.551v-1.265h4.016c0.68,0,1.021,0.12,1.021,0.359L80.419,55.603L80.419,55.603z
		 M80.419,53.31c0,0.098-0.072,0.171-0.213,0.221c-0.109,0.043-0.22,0.065-0.335,0.065h-4.489v-1.224h3.592
		c0.288,0,0.571,0.03,0.849,0.09c0.398,0.081,0.596,0.201,0.596,0.359L80.419,53.31L80.419,53.31z M88.63,51.195v2.964h-3.592
		c-0.985,0-1.477-0.179-1.477-0.539v-2.425h-1.185v2.661c0,0.577,0.346,0.991,1.037,1.241c0.451,0.163,0.993,0.245,1.624,0.245
		h3.592v0.205c0,0.332-0.494,0.497-1.482,0.497h-4.626v1.184h4.624c0.606,0,1.151-0.083,1.637-0.245
		c0.687-0.239,1.031-0.604,1.031-1.094v-4.694C89.813,51.195,88.63,51.195,88.63,51.195z"/>
	<path id="Gate" fill="#FFFFFF" d="M58.666,43.642c-0.676,0.229-1.014,0.602-1.014,1.12v3.351c0,0.529,0.336,0.904,1.005,1.129
		c0.447,0.142,1,0.212,1.659,0.212h4.783v-3.547c0-0.164-0.058-0.304-0.175-0.421c-0.117-0.117-0.258-0.175-0.421-0.175h-4.61v1.185
		h4.022v1.774h-3.603c-0.983,0-1.474-0.169-1.474-0.507v-2.665c0-0.332,0.491-0.498,1.473-0.498h4.788v-1.186h-4.783
		C59.668,43.413,59.118,43.49,58.666,43.642z M72.586,43.879c-0.545-0.311-1.142-0.466-1.79-0.466h-2.027
		c-0.621,0-1.183,0.136-1.684,0.408c-0.659,0.355-0.989,0.856-0.989,1.505v4.128h1.186v-1.888h5.076v1.888h1.186v-4.128
		C73.543,44.726,73.223,44.244,72.586,43.879z M72.357,46.381h-5.076v-0.801c0-0.229,0.164-0.45,0.494-0.662
		c0.33-0.212,0.661-0.318,0.994-0.318h2.027c0.42,0,0.785,0.096,1.095,0.29c0.311,0.194,0.466,0.424,0.466,0.691V46.381z
		 M89.813,44.599v-1.186H82.44v6.041h7.373v-1.185h-6.189v-1.774h6.189V45.31h-6.189v-0.711H89.813z M74.281,44.599h3.131v4.855
		h1.185v-4.855h3.131v-1.186h-7.446L74.281,44.599L74.281,44.599z"/>
	<path id="Golden" fill="#FFFFFF" d="M58.344,37.685c-0.461,0.156-0.692,0.411-0.692,0.765v2.287c0,0.361,0.229,0.618,0.686,0.77
		c0.305,0.097,0.683,0.145,1.133,0.145h3.264v-2.422c0-0.111-0.039-0.208-0.12-0.287c-0.079-0.081-0.175-0.121-0.287-0.121h-3.147
		v0.809h2.745v1.211h-2.459c-0.671,0-1.005-0.115-1.005-0.347v-1.818c0-0.227,0.334-0.341,1.005-0.341h3.268v-0.809h-3.264
		C59.028,37.529,58.653,37.581,58.344,37.685z M66.703,37.529h-1.445c-0.439,0-0.814,0.052-1.127,0.156
		c-0.462,0.156-0.693,0.411-0.693,0.765v2.287c0,0.328,0.236,0.573,0.709,0.737c0.339,0.119,0.709,0.179,1.111,0.179h1.445
		c0.424,0,0.798-0.054,1.122-0.162c0.465-0.16,0.697-0.411,0.697-0.753V38.45C68.522,37.836,67.916,37.529,66.703,37.529z
		 M67.713,40.531c0,0.208-0.336,0.313-1.01,0.313h-1.445c-0.659,0-0.988-0.105-0.988-0.313v-1.869c0-0.216,0.329-0.323,0.988-0.323
		h1.445c0.674,0,1.01,0.108,1.01,0.323V40.531z M69.883,37.529h-0.809v4.124h3.683v-0.809h-2.874V37.529z M77.684,37.691
		c-0.308-0.108-0.683-0.162-1.122-0.162h-3.264v4.124h3.264c0.384,0,0.753-0.063,1.105-0.19c0.476-0.171,0.715-0.413,0.715-0.726
		V38.45C78.381,38.1,78.148,37.848,77.684,37.691z M77.572,40.397c0,0.149-0.142,0.266-0.424,0.351
		c-0.205,0.064-0.4,0.096-0.586,0.096h-2.455v-2.506h2.455c0.674,0,1.011,0.1,1.011,0.301L77.572,40.397L77.572,40.397z
		 M89.004,37.529v2.896l-3.621-2.801c-0.093-0.074-0.189-0.111-0.29-0.111c-0.104,0-0.19,0.039-0.259,0.117
		c-0.069,0.078-0.103,0.183-0.103,0.312v3.711h0.808v-2.885l3.622,2.801c0.096,0.075,0.195,0.111,0.295,0.111
		c0.101,0,0.186-0.038,0.254-0.117c0.068-0.078,0.103-0.182,0.103-0.312v-3.722C89.813,37.529,89.004,37.529,89.004,37.529z
		 M79.017,41.653h5.068v-0.809h-4.258v-1.211h4.258v-0.809h-4.258v-0.485h4.258v-0.809h-5.068V41.653z"/>
	<path fill="#FFFFFF" d="M62.88,29.174h-5.229v1.297h5.211c0.661,0,1.037,0.005,1.126,0.017c0.31,0.024,0.465,0.099,0.465,0.224
		v0.179c0,0.149-0.13,0.247-0.393,0.295c-0.209,0.042-0.601,0.063-1.18,0.063h-2.314c-0.668,0-1.257,0.08-1.769,0.241
		c-0.763,0.238-1.145,0.613-1.145,1.126v3.164h8.143v-1.296h-6.847v-1.413c0-0.351,0.54-0.527,1.618-0.527h2.314
		c1.943,0,2.914-0.474,2.914-1.421v-0.68C65.794,29.598,64.823,29.174,62.88,29.174z"/>
	<path fill="#FFFFFF" d="M72.66,29.174h-2.315c-0.703,0-1.305,0.084-1.805,0.251c-0.738,0.25-1.108,0.659-1.108,1.225v3.665
		c0,0.524,0.378,0.917,1.135,1.18c0.543,0.191,1.135,0.286,1.779,0.286h2.315c0.679,0,1.278-0.086,1.796-0.259
		c0.745-0.256,1.117-0.658,1.117-1.206v-3.665C75.574,29.666,74.602,29.174,72.66,29.174z M74.278,33.983
		c0,0.334-0.539,0.501-1.618,0.501h-2.315c-1.054,0-1.582-0.167-1.582-0.501v-2.994c0-0.346,0.527-0.518,1.582-0.518h2.315
		c1.078,0,1.618,0.172,1.618,0.518V33.983z"/>
	<polygon fill="#FFFFFF" points="76.766,31.74 78.44,31.74 79.427,30.69 79.427,35.778 80.709,35.778 80.709,29.16 79.177,29.16 	
		"/>
	<path fill="#FFFFFF" d="M89.813,33.024v1.274h-0.794v1.481h-1.265v-1.481H82.39v-1.133l5.497-4.005h1.133v3.865H89.813z
		 M84.61,33.024h3.145v-2.136L84.61,33.024z"/>
</g>
<g>
	<g>
		<g id="XMLID_3_">
			<path fill="#F58B73" d="M97.182,26.555c1.679,2.101,2.532,4.32,1.15,6.658c-0.263-1.087-1.496-2.344-2.585-2.74
				c-0.281,1.658-1.607,3.213-2.979,4.136c-1.475-2.233,0.044-4.965-0.491-7.302c-1.357-1.09-4.265,0.115-5.778-0.368
				c-0.637-0.127-1.174-0.453-1.493-1.018c0.757-0.951,2.864-1.696,4.476-1.768c-0.781-1.462-1.3-3.26,0.016-4.608
				c0.786,1.742,4.416,1.741,5.114,3.847c1.121-0.497,3.045-0.203,4.117,0.47C98.048,24.612,97.992,25.98,97.182,26.555z"/>
		</g>
		<path fill="#F15F65" d="M95.578,28.57c0.14,0.637,0.245,1.291,0.266,1.943c1.064,0.432,2.234,1.646,2.489,2.701
			c0.027-0.046,0.052-0.092,0.077-0.137C98.298,31.214,97.122,29.562,95.578,28.57z"/>
		<path fill="#F15F65" d="M89.348,21.323c-0.077-0.54-0.105-1.08,0.008-1.621c-1.133,1.328-0.625,3.045,0.127,4.451
			c-0.014,0.001-0.028,0.002-0.041,0.003c0.444,0.084,0.866,0.24,1.253,0.502C90.616,23.479,89.572,22.555,89.348,21.323z"/>
		<path fill="#F15F65" d="M93.333,32.74c0.05,0.104,0.105,0.206,0.167,0.305C93.438,32.946,93.383,32.844,93.333,32.74
			c-0.105-0.009-0.212-0.029-0.321-0.061C93.12,32.712,93.227,32.731,93.333,32.74c-0.858-1.776-0.037-4.144-0.526-6.135
			c-0.161-0.172-0.37-0.276-0.528-0.276c-2.24-0.896-5.301,0.981-7.112-0.586c-0.059,0.059-0.112,0.118-0.16,0.179
			c0.32,0.565,0.856,0.891,1.493,1.018c1.513,0.482,4.421-0.723,5.778,0.368c0.535,2.337-0.984,5.069,0.491,7.302
			c1.029-0.692,2.032-1.739,2.588-2.919C94.789,32.254,94.115,32.806,93.333,32.74z"/>
		<ellipse fill="#F15F65" cx="86.845" cy="25.895" rx="0.55" ry="0.302"/>
		<ellipse fill="#F15F65" cx="88.308" cy="25.596" rx="0.386" ry="0.284"/>
		<ellipse fill="#F15F65" cx="89.572" cy="25.528" rx="0.305" ry="0.215"/>
		<circle fill="#F15F65" cx="93.476" cy="28.744" r="0.171"/>
		<circle fill="#F15F65" cx="93.562" cy="29.748" r="0.21"/>
		<circle fill="#F15F65" cx="93.634" cy="31.05" r="0.357"/>
		<circle fill="#F15F65" cx="96.877" cy="28.989" r="0.246"/>
		<circle fill="#F15F65" cx="97.87" cy="29.846" r="0.354"/>
		<circle fill="#F15F65" cx="90.102" cy="21.358" r="0.281"/>
		<circle fill="#F15F65" cx="91.323" cy="22.149" r="0.51"/>
		<circle fill="#F15F65" cx="97.32" cy="24.661" r="0.197"/>
		<circle fill="#F15F65" cx="96.756" cy="25.551" r="0.407"/>
		<circle fill="#F15F65" cx="96.409" cy="24.685" r="0.223"/>
		<g>
			<path fill="#006394" d="M89.498,19.546c0.786,1.742,4.416,1.741,5.114,3.847c0.387-0.172,0.869-0.249,1.379-0.249
				c0.968,0,2.036,0.278,2.738,0.719c-0.681,0.749-0.738,2.117-1.547,2.692c1.646,2.06,2.497,4.233,1.227,6.521
				c-0.025,0.046-0.05,0.091-0.077,0.137c-0.016-0.067-0.036-0.134-0.059-0.203c-0.009-0.025-0.02-0.05-0.029-0.075
				c-0.016-0.043-0.032-0.086-0.051-0.129c-0.014-0.032-0.03-0.064-0.046-0.096c-0.017-0.036-0.034-0.072-0.053-0.109
				c-0.019-0.037-0.041-0.073-0.062-0.11c-0.018-0.031-0.034-0.063-0.054-0.094c-0.024-0.041-0.051-0.081-0.078-0.121
				c-0.018-0.027-0.034-0.054-0.053-0.08c-0.03-0.044-0.063-0.087-0.095-0.131c-0.016-0.022-0.032-0.045-0.049-0.066
				c-0.036-0.048-0.075-0.094-0.114-0.141c-0.014-0.017-0.028-0.034-0.042-0.051c-0.043-0.05-0.087-0.1-0.132-0.148
				c-0.011-0.012-0.022-0.025-0.034-0.037c-0.049-0.052-0.099-0.103-0.15-0.153c-0.008-0.008-0.016-0.016-0.024-0.024
				c-0.055-0.053-0.11-0.105-0.167-0.155c-0.005-0.004-0.01-0.009-0.015-0.013c-0.06-0.053-0.121-0.104-0.182-0.154
				c-0.002-0.002-0.004-0.003-0.006-0.005c-0.321-0.258-0.663-0.469-0.995-0.604c-0.032-0.013-0.065-0.028-0.097-0.04
				c-0.07,0.416-0.206,0.825-0.393,1.219c-0.041,0.087-0.085,0.174-0.131,0.259c-0.015,0.027-0.029,0.053-0.044,0.08
				c-0.035,0.063-0.071,0.125-0.108,0.187c-0.016,0.026-0.031,0.052-0.047,0.078c-0.051,0.082-0.103,0.163-0.158,0.243
				c-0.002,0.003-0.003,0.005-0.005,0.008c-0.056,0.082-0.114,0.162-0.174,0.241c-0.018,0.025-0.037,0.049-0.056,0.073
				c-0.045,0.058-0.09,0.116-0.137,0.172c-0.019,0.024-0.038,0.047-0.058,0.071c-0.063,0.075-0.127,0.15-0.193,0.222
				c-0.002,0.002-0.003,0.004-0.005,0.006c-0.067,0.074-0.135,0.146-0.205,0.217c-0.021,0.022-0.042,0.043-0.064,0.064
				c-0.052,0.052-0.104,0.103-0.157,0.153c-0.022,0.02-0.043,0.041-0.065,0.061c-0.072,0.067-0.145,0.133-0.219,0.197
				c0,0-0.001,0.001-0.001,0.001c-0.074,0.064-0.15,0.126-0.225,0.187c-0.022,0.018-0.045,0.035-0.067,0.053
				c-0.056,0.044-0.113,0.088-0.17,0.13c-0.022,0.017-0.045,0.034-0.068,0.05c-0.077,0.056-0.154,0.11-0.231,0.162
				c-1.475-2.233,0.044-4.965-0.491-7.302c-0.454-0.365-1.082-0.473-1.773-0.473c-0.998,0-2.129,0.225-3.058,0.225
				c-0.35,0-0.672-0.032-0.947-0.12c-0.637-0.127-1.174-0.453-1.493-1.018c0.024-0.03,0.049-0.06,0.076-0.09
				c0.004-0.005,0.009-0.01,0.014-0.014c0.023-0.025,0.046-0.05,0.071-0.074c0,0,0,0,0,0c0.863-0.864,2.807-1.522,4.316-1.589
				c-0.024-0.045-0.047-0.09-0.071-0.135c-0.009-0.017-0.017-0.033-0.025-0.05c-0.015-0.029-0.03-0.058-0.044-0.087
				c-0.01-0.02-0.019-0.039-0.029-0.059c-0.013-0.026-0.026-0.053-0.038-0.079c-0.01-0.022-0.021-0.045-0.031-0.067
				c-0.011-0.024-0.022-0.048-0.034-0.073c-0.011-0.024-0.021-0.048-0.032-0.072c-0.01-0.023-0.02-0.046-0.03-0.069
				c-0.011-0.026-0.022-0.052-0.033-0.078c-0.009-0.021-0.018-0.042-0.026-0.064c-0.011-0.027-0.022-0.055-0.033-0.082
				c-0.008-0.02-0.016-0.041-0.024-0.061c-0.011-0.028-0.021-0.057-0.031-0.085c-0.007-0.019-0.014-0.039-0.021-0.058
				c-0.01-0.03-0.021-0.06-0.031-0.089c-0.006-0.018-0.012-0.036-0.018-0.054c-0.01-0.031-0.02-0.062-0.029-0.093
				c-0.005-0.017-0.011-0.034-0.016-0.052c-0.009-0.032-0.019-0.064-0.027-0.096c-0.005-0.016-0.009-0.033-0.014-0.049
				c-0.009-0.033-0.017-0.066-0.026-0.099c-0.004-0.015-0.008-0.03-0.011-0.046c-0.008-0.034-0.016-0.068-0.023-0.102
				c-0.003-0.014-0.006-0.028-0.009-0.042c-0.007-0.035-0.014-0.071-0.021-0.106c-0.002-0.013-0.004-0.025-0.007-0.038
				c-0.006-0.037-0.012-0.073-0.017-0.11c-0.002-0.012-0.003-0.023-0.005-0.034c-0.005-0.038-0.01-0.076-0.014-0.113
				c-0.001-0.01-0.002-0.02-0.003-0.031c-0.004-0.039-0.007-0.078-0.01-0.117c-0.001-0.008-0.001-0.017-0.002-0.025
				c-0.003-0.041-0.004-0.081-0.005-0.122c0-0.006,0-0.013,0-0.019c-0.001-0.042-0.001-0.085,0-0.127c0-0.004,0-0.008,0-0.012
				c0.001-0.045,0.003-0.089,0.006-0.134c0-0.001,0-0.001,0-0.002c0.037-0.569,0.231-1.12,0.653-1.617
				c0.001-0.001,0.002-0.002,0.003-0.003v0C89.401,19.65,89.448,19.597,89.498,19.546 M89.612,18.906l-0.375,0.383
				c-0.05,0.051-0.1,0.107-0.155,0.17l-0.002,0.002l-0.005,0.006l0,0c-0.441,0.518-0.689,1.125-0.738,1.806l-0.002,0.012l0,0.025
				c-0.003,0.046-0.005,0.093-0.006,0.139l0,0.005c-0.001,0.054-0.001,0.102,0,0.149l0,0.02c0.001,0.046,0.003,0.091,0.006,0.136
				l0.002,0.029c0.003,0.04,0.006,0.083,0.01,0.126l0.001,0.011l0.003,0.027c0.004,0.038,0.009,0.079,0.015,0.121l0.005,0.036
				c0.006,0.041,0.012,0.08,0.019,0.12l0.003,0.014l0.005,0.03c0.006,0.036,0.014,0.074,0.022,0.112l0.009,0.041
				c0.009,0.041,0.017,0.078,0.026,0.115c0.003,0.016,0.008,0.033,0.012,0.05c0.008,0.032,0.017,0.068,0.027,0.104
				c0.004,0.016,0.009,0.035,0.015,0.053c0.009,0.032,0.018,0.065,0.028,0.099l0.018,0.057c0.01,0.032,0.02,0.066,0.032,0.099
				c0.004,0.013,0.01,0.029,0.015,0.045l0.004,0.011c0.012,0.035,0.022,0.065,0.033,0.095c0.006,0.018,0.014,0.038,0.021,0.057
				l0.348-0.115l-0.344,0.126c0.01,0.027,0.02,0.055,0.03,0.082l0.014,0.036l0.01,0.027l0.011,0.028
				c0.008,0.02,0.016,0.04,0.024,0.06l0.018,0.043l0.009,0.022l0.014,0.034l0.021,0.049l0.021,0.047l0.01,0.024l0.01,0.023
				c0.008,0.018,0.016,0.037,0.024,0.055l0.022,0.048l0.012,0.026l0.002,0.003c-1.701,0.199-3.253,0.934-3.96,1.607l-0.05,0.024
				l-0.032,0.058c-0.015,0.016-0.03,0.032-0.045,0.048c-0.005,0.005-0.011,0.011-0.016,0.017c-0.031,0.034-0.06,0.069-0.089,0.105
				l-0.155,0.193l0.122,0.216c0.352,0.622,0.946,1.034,1.721,1.193c0.285,0.088,0.625,0.131,1.038,0.131
				c0.476,0,1.004-0.057,1.514-0.112c0.519-0.056,1.055-0.113,1.544-0.113c0.651,0,1.115,0.102,1.444,0.319
				c0.164,0.85,0.055,1.763-0.061,2.726c-0.184,1.537-0.375,3.126,0.575,4.565l0.204,0.308l0.307-0.206
				c0.072-0.049,0.149-0.103,0.242-0.17l0.048-0.036l0.022-0.016c0.06-0.045,0.119-0.09,0.178-0.136l0.021-0.017l0.049-0.039
				c0.086-0.069,0.158-0.129,0.226-0.187l0.041-0.031l0.008-0.012c0.058-0.051,0.119-0.107,0.19-0.172l0.05-0.047l0.017-0.016
				c0.056-0.053,0.11-0.106,0.165-0.16l0.02-0.02c0.016-0.016,0.032-0.032,0.047-0.048c0.077-0.079,0.145-0.151,0.207-0.219
				l0.004-0.004l0.009-0.01c0.062-0.068,0.127-0.144,0.2-0.231c0.016-0.019,0.033-0.04,0.05-0.061l0.011-0.013
				c0.048-0.059,0.096-0.119,0.143-0.181l0.008-0.011c0.017-0.022,0.034-0.044,0.05-0.066c0.069-0.091,0.129-0.174,0.183-0.254
				l0.005-0.008l0,0c0.052-0.076,0.105-0.157,0.167-0.257l0.034-0.056l0.016-0.026c0.04-0.066,0.078-0.132,0.115-0.199
				c0.015-0.027,0.03-0.054,0.045-0.082c0.058-0.108,0.102-0.196,0.141-0.279c0.134-0.284,0.241-0.569,0.32-0.853
				c0.2,0.109,0.405,0.247,0.604,0.407l0.003,0.002c0.058,0.047,0.115,0.095,0.172,0.146l0.006,0.006l0.002,0.002l0.005,0.005
				c0.053,0.047,0.105,0.095,0.155,0.144l0.008,0.008l0.017,0.016c0.046,0.046,0.093,0.093,0.138,0.141l0.015,0.017l0.015,0.017
				c0.043,0.046,0.084,0.092,0.124,0.139l0.02,0.025l0.017,0.021c0.037,0.045,0.072,0.088,0.106,0.131
				c0.009,0.012,0.018,0.024,0.027,0.036l0.018,0.025l0.009,0.012c0.027,0.036,0.053,0.072,0.079,0.109
				c0.009,0.014,0.018,0.028,0.028,0.042l0.021,0.033l0.015,0.023c0.019,0.029,0.038,0.057,0.055,0.086
				c0.012,0.02,0.022,0.037,0.031,0.055l0.017,0.031l0.015,0.026c0.014,0.024,0.028,0.048,0.04,0.072
				c0.011,0.022,0.021,0.043,0.031,0.064l0.016,0.034l0.016,0.034c0.008,0.016,0.016,0.033,0.023,0.049
				c0.014,0.033,0.026,0.064,0.038,0.096l0.006,0.017c0.005,0.013,0.01,0.026,0.015,0.038c0.004,0.009,0.008,0.019,0.011,0.028
				c0.02,0.058,0.036,0.115,0.05,0.169l0.213,0.88l0.459-0.781c0.023-0.04,0.045-0.079,0.067-0.119l0.015-0.027
				c1.136-2.047,0.794-4.226-1.049-6.654c0.344-0.373,0.537-0.867,0.724-1.348c0.172-0.441,0.334-0.857,0.594-1.143l0.295-0.324
				l-0.371-0.233c-0.762-0.478-1.885-0.775-2.933-0.775c-0.431,0-0.831,0.052-1.177,0.153c-0.53-1.038-1.723-1.56-2.787-2.025
				c-0.97-0.424-1.886-0.824-2.196-1.512L89.612,18.906L89.612,18.906z"/>
		</g>
	</g>
	<g>
		<path fill="#006394" d="M99.153,30.051c-0.188-1.279-0.918-2.482-1.78-3.465c0.697-0.513,0.852-1.688,1.381-2.422
			c0.097-0.134,0.206-0.253,0.333-0.351c-0.1-0.085-0.216-0.161-0.341-0.231c-0.61-0.338-1.452-0.501-1.937-0.561
			c-0.647-0.079-1.507-0.113-2.145,0.194c-0.324-0.909-1.329-1.491-2.166-1.897c-0.919-0.446-2.296-0.839-2.778-1.814
			c-0.029-0.058-0.054-0.119-0.076-0.181c-0.037-0.016-0.081-0.018-0.123,0.006c-0.09,0.05-0.172,0.11-0.249,0.176
			c-0.609,0.527-0.788,1.521-0.741,2.273c0.048,0.769,0.351,1.53,0.736,2.211c-0.648,0.029-1.3,0.18-1.915,0.363
			c-0.64,0.191-1.263,0.465-1.82,0.833c-0.143,0.094-0.32,0.219-0.478,0.364c-0.107,0.098-0.206,0.205-0.281,0.32
			c0.075,0.148,0.162,0.28,0.259,0.4c0.739,0.916,2.052,1.045,3.269,0.93c0.827-0.078,1.643-0.227,2.476-0.213
			c0.573,0.009,1.033,0.142,1.402,0.433c0.298,2.301-1.047,5.125,0.291,7.13c0.076,0.114,0.163,0.224,0.257,0.333
			c0.107-0.068,0.213-0.141,0.319-0.216c1.359-0.961,2.589-2.446,2.858-4.034c0.497,0.252,0.927,0.64,1.307,1.042
			c0.451,0.477,0.673,0.959,0.868,1.514c0.053,0.15,0.104,0.305,0.156,0.467c0.006,0.017,0.014,0.033,0.024,0.046
			c0.107-0.128,0.205-0.265,0.293-0.408C99.135,32.345,99.309,31.109,99.153,30.051z M98.724,31.714
			c-0.071,0.351-0.203,0.662-0.358,0.961c-0.208-0.426-0.545-0.822-0.811-1.112c-0.436-0.473-1.004-0.89-1.627-1.106
			c0.089-0.719-0.022-1.455-0.413-2.169c-0.038-0.07-0.159-0.022-0.131,0.055c0.25,0.68,0.296,1.36,0.189,2.015
			c-0.007,0.041-0.015,0.082-0.023,0.122c-0.294,1.518-1.402,2.894-2.701,3.815c-0.267-0.523-0.462-1.033-0.528-1.659
			c-0.075-0.718,0.01-1.45,0.087-2.164c0.101-0.933,0.204-1.88,0.041-2.793c-0.028-0.155-0.063-0.308-0.107-0.461
			c-0.07-0.056-0.144-0.105-0.222-0.151c-0.685-0.399-1.653-0.409-2.427-0.36c-1.41,0.09-3.484,0.544-4.403-0.729
			c0.16-0.183,0.323-0.362,0.551-0.514c0.534-0.356,1.148-0.591,1.757-0.782c0.584-0.184,1.194-0.303,1.804-0.357
			c0.021-0.002,0.042-0.002,0.063-0.004c0.071-0.005,0.141-0.007,0.21-0.008c-0.053-0.11-0.104-0.22-0.155-0.33
			c-0.298-0.653-0.549-1.318-0.636-2.041c-0.051-0.424-0.001-0.846,0.123-1.254c0.095-0.312,0.283-0.551,0.465-0.8
			c0.436,0.651,1.235,1.046,1.972,1.369c1.202,0.528,2.41,0.944,2.998,2.082c0.036,0.07,0.069,0.144,0.101,0.219
			c0.05,0.12,0.095,0.244,0.132,0.38c0.015,0.053,0.091,0.04,0.094-0.013c0.008-0.153-0.004-0.298-0.03-0.437
			c0.645-0.207,1.352-0.206,2.022-0.107c0.506,0.074,1.004,0.221,1.47,0.433c0.075,0.034,0.144,0.074,0.211,0.117
			c-0.528,0.749-0.638,1.77-1.277,2.42c-0.053,0.054-0.11,0.106-0.171,0.155c0.05,0.07,0.1,0.141,0.149,0.211
			c0.63,0.898,1.211,1.817,1.518,2.889C98.858,30.296,98.865,31.016,98.724,31.714z M92.268,24.248
			c-0.084-0.081-0.204-0.062-0.279,0.002c-0.053,0.045-0.144,0.167-0.054,0.26c0.088,0.091,0.568,0.77,0.776,1.105
			c0.121,0.195,0.275,0.24,0.39,0.187c0.09-0.042,0.15-0.133,0.105-0.253C93.013,25.037,92.658,24.622,92.268,24.248z
			 M94.291,25.211c0.002,0.003,0.004,0.006,0.006,0.009c0.001,0,0.001,0,0.001,0c0.011,0.015,0.022,0.031,0.034,0.046
			c0.158,0.203,0.487-0.06,0.353-0.272c-0.134-0.211-0.273-0.424-0.434-0.615c-0.02-0.028-0.039-0.055-0.059-0.083
			c-0.081-0.11-0.39-0.562-0.624-0.396c-0.071,0.05-0.122,0.181-0.051,0.263c0.022,0.025,0.299,0.402,0.363,0.488
			C94.016,24.837,94.15,25.026,94.291,25.211z M94.805,26.202c-0.093,0.235-0.283,0.36-0.532,0.38
			c-0.105,0.009-0.545-0.188-0.583,0.048c-0.029,0.177,0.227,0.229,0.287,0.254c0.143,0.059,0.325,0.03,0.477,0.016
			c0.331-0.031,0.574-0.254,0.704-0.549C95.271,26.094,94.909,25.942,94.805,26.202z"/>
	</g>
</g>
</svg>
