<?xml version="1.0" encoding="utf-8"?>
<!-- Generator: Adobe Illustrator 17.1.0, SVG Export Plug-In . SVG Version: 6.00 Build 0)  -->
<!DOCTYPE svg PUBLIC "-//W3C//DTD SVG 1.1//EN" "http://www.w3.org/Graphics/SVG/1.1/DTD/svg11.dtd">
<svg version="1.1" id="Final_Bot__x26__Logo" xmlns="http://www.w3.org/2000/svg" xmlns:xlink="http://www.w3.org/1999/xlink"
	 x="0px" y="0px" viewBox="103.6 1.5 584.1 610.1" enable-background="new 103.6 1.5 584.1 610.1" xml:space="preserve">
<g>
	<g>
		<g>
			<path fill="#006394" d="M443.4,608.6c-0.2,0-0.4,0-0.6,0c-4.5-0.2-8.6-2.7-11.5-7.2c-10.7-1.6-16.3-22.7-20.8-39.8
				c-1.4-5.1-2.5-9.6-3.6-12.4c-1-1.3-1.8-2.5-2.6-3.6c-1.1-1.5-2.2-2.9-3.1-4.2c-3.5-4.8-6-8.7-9.7-16.3
				c-4.1-8.4-2.6-23.6,3.1-32.6c-0.9-8.7-1.9-20.6-2-30.7c-7.2-5.1-11.6-13.3-11.9-22.2c-0.2-6,1.9-12.7,5.1-17.2
				c-3.4-3.5-6.5-7-9-10.3c-12.3-0.6-24.5-3.9-36.2-9.7c-25.8-12.8-41.5-33.7-44.4-37.9c-3.4-1.6-6.7-3.6-9.9-6
				c-1-0.3-2.1-0.7-3.1-1.1c-0.2,0.3-0.3,0.5-0.4,0.8c17,10.4,23.5,29.1,23.9,42.4c1.4,9.5-1.1,18-6.3,22.2c1.2,1.8,2.4,3.5,3.7,5
				c2.5,3.1,6,3.5,9.8,4c3.8,0.5,8.2,1,10.3,5.2c2.8,5.7,2.7,11.3-0.3,16.2c-4.9,7.9-16.2,12-22.5,12c-0.3,0-0.6,0-0.9,0
				c-16.5-1.1-23.1-13.8-24.8-22.5c-0.3,0-0.5,0-0.8,0c-0.3,0.9-0.5,1.8-0.7,2.7c-1.8,7.6-3.7,15.5-7.8,22.4l-0.6,1.1l0,0
				c-0.5,0.8-1,1.6-1.6,2.4l-0.1,0.1l-0.4,0.4c-4.7,6-14.8,12.3-24.3,12.3c-0.8,0-1.5,0-2.3-0.1c-0.4,1.1-0.9,2.3-1.4,3.5
				c-3.3,7.7-9.7,18.1-27.7,18.7c-0.2,0-0.4,0-0.5,0c-5.6,0-11.2-2.8-15.8-7.8c-3,1-6.4,1.1-7.9,1.1c-2.6,0-6-0.3-7.9-1.7
				c-4.6-3.3-9.6-13-8.8-19.9l0.1-0.5l0.2-0.5c3.2-6.5,6.9-12.6,11.9-19.8c3-4.7,6-9.7,9.2-15.8c0.1-0.3,0.4-1,0.7-1.6
				c0.1-0.3,0.2-0.6,0.4-0.9c-4.1-5.5-6.2-13.9-5.8-22.7c0.3-24.9,14.7-56.6,54.3-64c2.4-3.4,10.2-13.9,22.2-20.2
				c-0.8-3-1.3-6.1-1.4-9.2c-0.1-3.8,0.4-7.6,1.5-11.2c-0.7-6.6-0.2-12.9,1.3-18.6c-11.5-38.8-11.3-94.7,23.4-136.6
				c2.2-2.7,4.6-5.3,7-7.8l0.6-0.6c13.2-13.4,40.6-41.4,121.3-54.3c12.4-2,25.7-3.6,39.5-4.7c4-0.3,8.1-0.5,12.1-0.5
				c18.7,0,36.7,3.5,48,9.5c6.4,3.3,11.9,8.9,17.4,17.5c4.7,7.4,9.5,17.2,15.3,31.5c1,2.2,1.9,4.5,2.8,6.8c0.5,1.3,1,2.6,1.5,3.9
				c8.4,21.7,14,43.2,16.8,64c1.2,0.2,2.4,0.5,3.6,0.9c9.1-9.1,11.6-21.1,12.2-25.2c-11.5-10-21.4-25.3-28.6-44.4
				c-2-5.4-3.8-11-5.4-16.6c-3.2-11.7-5.2-24-5.7-34.5c0-0.2,0-0.3,0-0.5c-0.1-2.2,0.3-4.4,0.9-6.6c-10.7-8.3-17.2-21.8-15.1-32.2
				c0.3-1.7,0.9-3.4,1.7-4.9c4-7.6,13.3-18.2,19.7-21c1.8-0.8,4.2-1.2,7.2-1.3c0.3-2.1,0.7-3.6,1.2-4.7c3.4-7.7,12.4-18.2,36.3-24.9
				c3.2-0.9,6.8-1.3,10.7-1.3c11.9,0,28.1,4.6,36.5,14.8c0.7,0,1.3,0,2,0c7,0,19.8,1.7,27.3,13.2c0.3,0.5,6.2,10,3.4,20
				c5.8,2.7,7.3,6.3,7.6,8.4l0,0.2c1.2,6.7,1.1,12.4,0.7,16c-0.3,3.5-1,6.7-2.1,9.7c2.1,3.3,3.2,6.8,3.3,10.4c0,0.9,0,1.7-0.1,2.5
				c-0.5,11.5-1.7,22.5-3.5,32.7c-8.6,48.9-31.6,78.4-61.5,79.2c-2,6.7-8.8,27.1-22.4,38.5c0.7,2.7,1,5.4,1.1,8.2
				c0.6,20.3-14.2,36.9-34,38.6c-2,8.5-4.5,16.7-7.6,24.6c-3,7.7-6.5,15.1-10.5,22c-0.2,0.3-0.4,0.8-0.7,1.2
				c-3.4,5.7-8.8,11.4-16.2,17c-1.2,6.3-2.6,12.5-4.2,18.4c1.8,3.2,3.2,6.6,4,10.1c8.3-3.5,21.9-9.5,27.4-13.1
				c1.1-0.9,2.2-1.7,3.3-2.5c5.6-3.6,12.8-5.6,20.4-5.6c12.1,0,22.4,4.8,25.8,11.8c5.8,12.2,5.6,30.5,5.5,48.2c0,4.5-0.1,8.7,0,12.8
				c0,1.2,0,2.4,0.1,3.6c0.4,14.2,5.1,26.7,9.6,38.8c3.8,10.2,7.4,19.8,8.2,29.7c1.6,20.7-3.5,37.6-9.8,43.8
				c5.8,17.4,8.1,29.4,6.9,35.8l-0.2,1l-0.8,0.7c-0.4,0.4-10.7,9.2-32.2,9.2c-4.2,0-8.6-0.3-13.1-1c-22.4-3.4-47-20.4-60.1-35.6
				c-12.4-6.7-22-20.7-25.8-37.5c-2.7-11.9-2.2-24.1,1.3-34.2c2-5.8,5.9-13.7,10.6-18.8c9-9.7,25.2-30.6,28.2-47.4
				c0.1-0.4,0.2-0.9,0.3-1.3c0-0.2,0.1-0.4,0.1-0.6c1-5.1,2-10,3.2-14.4c-4,1.6-9.6,4.1-12.6,5.5c-0.9,0.4-1.7,0.8-2.3,1.1
				c-6.4,8.9-16.1,14.4-27,15.3c-13.5,13.9-30.1,20.9-49.3,20.9c-0.4,0-0.8,0-1.2,0c-0.4,0-0.8,0-1.2,0c-3.7,0-7.6-0.6-11.8-1.9
				c-3.1,4.7-7.4,8.4-12.6,10.6c-0.4,6.1-0.6,12.1-0.5,18c7.9,2.8,16.1,14.1,18.7,17.8c21,5.2,32.5,24.3,35.6,33.9
				c7,21,3.4,39.1-10.8,53.7C459.9,600.4,452,608.6,443.4,608.6z"/>
			<g>
				<path fill="#006394" d="M606,7.4c13,0,28.2,5.5,35.1,14.9c0.9-0.1,2.1-0.1,3.3-0.1c7,0,18.2,1.7,24.8,11.8c0,0,6.3,9.9,2.4,19.4
					l-0.2,0.7c6.2,2.1,8.1,5.2,8.4,7.2c0.2,1,1.5,7.6,0.7,15.3c-0.3,3.4-1.1,7.1-2.6,10.6l0.5,0.2c2.1,3,3.2,6.2,3.3,9.6
					c0,0.7,0,1.5-0.1,2.2c-0.5,11.7-1.7,22.5-3.4,32.4c-8.8,50.1-32.3,76.7-59.8,76.7c-0.3,0-0.7,0-1.1,0l0,0.1
					c0,0-6.9,27.8-23.5,40.2c0.9,3,1.5,6.1,1.6,9.4c0.6,19.4-14.1,35.1-33.5,35.7c-2.1,9.5-4.8,18.3-7.9,26.3
					c-3.1,7.9-6.6,15.1-10.3,21.6c-0.2,0.4-0.5,0.8-0.7,1.2c-3.4,5.8-9.1,11.5-16.3,16.8c-1.1,5.9-2.6,12.9-4.7,20.5
					c2.6,4.1,4.3,8.8,4.9,13.9c7.5-3.1,25.1-10.7,31.5-14.9c1-0.9,2.1-1.7,3.1-2.4c5.5-3.6,12.3-5.1,18.8-5.1
					c10.4,0,20.2,4,23.1,10.1c6.9,14.5,4.9,39.5,5.1,59.8c0,1.2,0,2.5,0.1,3.7c0.8,26.8,16.2,47.6,17.8,68.6
					c1.7,21.7-4.3,38.9-10.3,42.6c4.5,13.2,8.8,28.8,7.5,36.3c0,0-9.7,8.5-30.2,8.5c-3.8,0-8-0.3-12.6-1
					c-21.9-3.3-46-20.1-58.6-35.1c-11.5-6-21-19.2-24.8-35.8c-2.6-11.4-2.2-22.9,1.2-32.5c2.2-6.3,6-13.5,10-17.7
					c10-10.8,25.8-31.7,29-48.9c0.1-0.5,0.2-0.9,0.3-1.4c0-0.2,0-0.3,0.1-0.5c1.4-7.3,2.9-13.8,4.6-19.5c-2.9,0.1-16.1,6.4-21.2,8.6
					c-5.8,8.5-15.4,14.3-26.4,14.8c-11.7,12.3-27.2,20.9-47.9,20.9c-0.4,0-0.8,0-1.3,0c-0.4,0-0.8,0-1.2,0c-4.2,0-8.6-0.9-13.2-2.5
					c-3,5.6-8,10-14.1,12.1c-0.7,8.8-0.8,16.5-0.7,22.5l0.3,0c8.4,1.1,19.5,18,19.5,18c19.4,4.2,31.1,21.6,34.6,32.2
					c6.5,19.6,3.5,37-10.6,51.3c-2.8,12.1-10.1,19-17,19c-0.1,0-0.3,0-0.4,0c-3.7-0.2-7.3-2.4-9.9-7.1c-0.2,0-0.3,0-0.5,0
					c-12.5,0-18.6-39.4-23.1-50.7c-2.4-3.3-4.3-5.8-6-8.1c-3.5-4.8-5.8-8.5-9.4-15.9c-3.6-7.3-2.4-22.1,3.5-30.6
					c-1-9.6-2.1-22.6-2.1-33l0,0c-6.9-4.3-11.7-11.9-11.9-20.7c-0.2-6.6,2.6-13.9,6.2-17.3c-4.6-4.5-8.5-8.9-11.4-12.9
					c-0.3,0-0.7,0-1-0.1c-13.3-0.6-25.1-4.3-35.4-9.4c-27.7-13.7-43.7-37.5-43.7-37.5v0c-3.6-1.6-7.1-3.7-10.5-6.4
					c-1.9-0.5-3.8-1.3-5.6-2.1c-1.5,2.2-2.6,4.2-2.5,5.7l-0.2,0.3c17,9.2,24,27.3,24.3,41.2c1.5,9.7-1.5,18.4-7.4,20.9l-0.1,0.1
					c1.5,2.4,3.4,5.1,5.5,7.8c6.1,7.7,16.9,2.9,19.7,8.6c7.6,15.2-11.8,24-20.2,24c-0.2,0-0.5,0-0.7,0c-21-1.4-22.5-22.9-22.5-22.9
					c-1.3,0.3-2.7,0.4-4.2,0.4c-0.5,0-0.9,0-1.4,0c-0.5,1.7-0.9,3.4-1.3,5c-1.8,7.5-3.6,15.1-7.5,21.7l0,0c-0.6,1.1-1.3,2.2-2.1,3.2
					l-0.4,0.4c-4.5,5.8-13.9,11.3-22,11.3c-1.5,0-2.9-0.2-4.2-0.6c-0.6,1.8-1.3,3.8-2.2,5.8c-3.4,8-9.3,16.4-25,16.8
					c-0.1,0-0.3,0-0.4,0c-6,0-11.4-3.9-14.9-8.5c-2.1,1.2-5.7,1.8-8.8,1.8c-2.7,0-5.2-0.4-6.1-1.1c-4-2.9-8.3-11.6-7.7-17.2
					c3.4-6.8,7.1-12.9,11.7-19.4c3.4-5.3,6.4-10.5,9.4-16.1c0.3-0.5,0.9-2.1,1.9-4.4c-4.2-4.7-6.7-12.9-6.3-22.1
					c0.2-23.1,13.5-54.6,53.1-61.4l0,0c0,0,9.1-14.5,24.1-21.4l-0.1-0.3c-1.1-3.3-1.8-6.8-1.9-10.5c-0.1-3.8,0.4-7.5,1.5-10.8h0
					c-0.8-6.7-0.3-13.2,1.4-18.9l0,0c-11.4-37.5-11.8-93.2,22.6-134.6c2.1-2.6,4.4-5.1,6.8-7.6c12.4-12.6,39.2-41.1,120.3-54.1
					c11.9-1.9,24.9-3.5,39.3-4.6c4-0.3,8-0.5,11.8-0.5c19.8,0,36.7,4,46.7,9.1c6,3.1,11.2,8.6,16.2,16.4c5,7.9,9.8,18.2,15.1,31
					c1,2.3,1.9,4.5,2.8,6.7c0.5,1.3,1,2.6,1.5,3.8c9.1,23.5,14.4,45.4,16.9,65.5c2.4,0.3,4.8,0.8,7,1.6
					c13.3-12.2,14.6-29.8,14.6-29.8c-12.9-10.6-22.4-27-29-44.3c-2.1-5.4-3.8-10.9-5.3-16.3c-3.3-12.2-5.1-24.1-5.6-34
					c0-0.1,0-0.2,0-0.3c-0.1-2.6,0.5-5.1,1.6-7.5l0,0c-10.4-7.1-17.8-20.4-15.8-30.5c0.3-1.4,0.7-2.8,1.4-4.1
					c3.9-7.5,12.8-17.3,18.3-19.6c1.7-0.7,4.1-1,6.7-1c0.6,0,1.3,0,1.9,0c0.2-2.2,0.7-5,1.3-6.5c4-9.1,14.6-17.7,34.4-23.3
					C599.1,7.8,602.5,7.4,606,7.4 M606,1.5v5.9V1.5c-4.2,0-8,0.5-11.5,1.5c-13.8,3.9-31.6,11.6-38.2,26.6c-0.3,0.6-0.6,1.5-0.9,3
					c-2.3,0.2-4.2,0.7-5.8,1.4c-7.2,3.1-16.9,14.2-21.2,22.3c-0.9,1.8-1.6,3.7-2,5.7c-2.2,10.9,4,24.7,14.7,33.8
					c-0.4,1.8-0.6,3.7-0.5,5.6c0,0.2,0,0.4,0,0.6c0.5,10.7,2.6,23.2,5.8,35.1c0.7,2.7,1.5,5.4,2.3,8c-5.7-14-10.4-23.6-15.2-31.1
					c-5.8-9.1-11.7-15-18.5-18.5c-11.8-6.1-30.2-9.8-49.4-9.8c-4.1,0-8.2,0.2-12.3,0.5c-13.9,1.1-27.3,2.7-39.8,4.7
					c-81.7,13.1-109.6,41.5-123,55.2l-0.6,0.6c-2.5,2.5-4.9,5.2-7.2,8c-35.3,42.4-35.7,99-24.2,138.5c-1.4,5.7-1.8,11.9-1.2,18.3
					c-1.1,3.7-1.5,7.6-1.4,11.6c0.1,2.6,0.4,5.1,0.9,7.6c-10.4,6.1-17.6,14.9-20.5,19c-18.1,3.7-32.9,12.8-42.7,26.5
					c-11,15.4-12.8,31.7-12.9,40.1c-0.4,8.8,1.6,17.1,5.4,23.1c-0.1,0.3-0.2,0.5-0.3,0.7l0,0.1c-3.2,6-6.1,10.9-9.1,15.6
					c-5.1,7.3-8.9,13.5-12.1,20.1l-0.5,0.9l-0.1,1c-0.9,8,4.7,18.8,10.1,22.7c2,1.5,5.3,2.3,9.6,2.3c1.7,0,4.4-0.1,7-0.8
					c4.9,4.8,10.8,7.5,16.7,7.5c0.2,0,0.4,0,0.6,0c21.9-0.7,28.2-15.6,30.3-20.5c0.2-0.5,0.4-1.1,0.7-1.6c0.1,0,0.2,0,0.3,0
					c10.5,0,21.2-6.7,26.5-13.3l0.2-0.2l0.3-0.3l0.2-0.3c0.4-0.5,0.7-1,1.1-1.6l0.1,0l1.2-2.1c3.3-5.6,5.2-11.6,6.7-17.6
					c3.8,7.8,11.3,15.5,24.7,16.4c0.4,0,0.7,0,1.1,0c6.7,0,19.3-4.3,25-13.4c3.6-5.8,3.7-12.6,0.5-19.1c-2.8-5.6-8.4-6.3-12.6-6.8
					c-3.8-0.5-6.2-0.9-7.8-2.9c-0.7-0.9-1.4-1.8-2.1-2.8c4.6-5.1,6.7-13.5,5.4-22.8c-0.2-6.3-1.7-13.8-4.9-21
					c7.8,8.2,19.5,18.3,34.5,25.7c11.7,5.8,23.8,9.1,36,9.9c2,2.5,4.2,5.1,6.7,7.7c-2.8,4.9-4.5,11.2-4.3,17
					c0.3,9.3,4.7,17.9,11.9,23.6c0.2,9.4,1.1,20.2,1.9,28.5c-5.8,10-7.2,25.6-2.7,34.6c3.8,7.8,6.4,11.8,10,16.7
					c0.9,1.3,2,2.7,3.1,4.2c0.7,1,1.5,2.1,2.4,3.2c1,2.7,2.1,7.1,3.4,11.7c4.8,18.2,10.2,38.7,21.9,41.7c3.4,4.6,7.9,7.2,13.1,7.5
					c0.2,0,0.5,0,0.7,0c9.9,0,18.7-8.8,22.3-22c14.5-15.4,18.2-34.3,10.9-56.2c-4.6-13.8-17.9-30.4-36.6-35.6
					c-3.3-4.8-10.2-13.5-17.5-17.1c0-4.6,0.1-9.3,0.4-14.1c4.3-2.1,8.1-5.3,11-9.1c3.7,1,7.3,1.5,10.6,1.5c0.4,0,0.8,0,1.3,0
					c0.4,0,0.8,0,1.2,0c19.7,0,36.7-7.1,50.6-21.1c11-1.2,20.9-6.9,27.6-15.8c0.5-0.2,1.1-0.5,1.6-0.7c1.6-0.7,4.3-2,7.1-3.2
					c-0.6,2.8-1.3,5.8-1.8,8.8c0,0.2-0.1,0.4-0.1,0.6c-0.1,0.5-0.2,0.9-0.3,1.4c-2.9,16-18.7,36.4-27.5,45.9
					c-5,5.4-9.1,13.7-11.2,19.8c-3.8,10.6-4.3,23.4-1.4,35.8c4,17.5,14,32,26.8,39.2c13.1,15.1,37.6,32.6,61.6,36.2
					c4.6,0.7,9.2,1.1,13.5,1.1c22.6,0,33.7-9.6,34.2-10l1.5-1.4l0.4-2c0.5-2.5,1.9-10-6.5-35.6c6.9-8.3,10.9-26.1,9.4-44.8
					c-0.8-10.3-4.5-20.2-8.4-30.5c-4.4-11.8-9-24.1-9.5-37.8c0-1.2-0.1-2.4-0.1-3.6c-0.1-4.1,0-8.3,0-12.8c0.2-18,0.3-36.7-5.7-49.5
					c-4.5-9.3-17.5-13.5-28.5-13.5c-5.7,0-14.2,1-22,6c-1.2,0.8-2.4,1.7-3.5,2.6c-3.7,2.4-12.3,6.5-23.7,11.5
					c-0.7-2.2-1.6-4.3-2.7-6.4c1.4-5.3,2.7-10.8,3.8-16.4c7.2-5.6,12.6-11.3,16-17.1l0,0l0-0.1c0.3-0.4,0.5-0.9,0.7-1.3
					c4-7,7.6-14.5,10.6-22.3c2.9-7.4,5.3-15.1,7.2-22.9c20.4-2.9,35.2-20.3,34.6-41.4c-0.1-2.4-0.3-4.7-0.8-7
					c12.1-11,18.8-28.6,21.4-36.7c14.4-1,27.5-8.5,38.1-21.7c11.4-14.1,19.7-34.8,24.1-59.8c1.8-10.3,3-21.4,3.5-32.9
					c0.1-0.9,0.1-1.9,0.1-2.8c-0.1-3.7-1.1-7.3-3.1-10.7c0.9-2.8,1.5-5.8,1.8-9c0.4-3.8,0.6-9.7-0.7-16.8l0-0.1
					c-0.4-2.3-1.9-6.2-7.2-9.4c1.8-10.4-4-19.6-4.2-20l0,0l0,0c-6.2-9.4-16.7-14.5-29.8-14.5c-0.2,0-0.4,0-0.6,0
					C634.5,6.1,618.1,1.5,606,1.5L606,1.5z M570,219.1c-2.5-17.6-7.1-35.8-13.5-54.1c6.5,13.8,14.5,25.2,23.5,33.4
					C579.1,202.8,576.6,211.7,570,219.1L570,219.1z"/>
			</g>
		</g>
		<path fill="#4EC1E0" d="M681.8,97c0,0.7-0.1,1.5-0.1,2.2c-1.8,17-30.8,31.3-66.6,32.4c-37.1,1.1-67.7-12.3-68.7-30.1
			c0-0.1,0-0.2,0-0.3c-0.1-2.6,0.5-5.1,1.6-7.5l0,0c2.6,1.8,5.3,3.2,8.1,4c0.5,2.3,1.1,3.8,1.1,3.8c32.3,31.2,78.2,21.3,101.6,10.1
			c4.4-2.1,7.8-4.4,10.6-7.1c2.7-2.7,4.8-5.9,6.5-9.7c-0.1-0.8-0.3-1.6-0.6-2.2c1.2-1.7,2.1-3.5,2.8-5.3l0.5,0.2
			C680.5,90.4,681.7,93.6,681.8,97z"/>
		<path opacity="0.2" fill="#006394" enable-background="new    " d="M557.2,101.5c0,0-0.6-1.6-1.1-3.8c-2.8-0.9-5.6-2.3-8.1-4l0,0
			c-1.1,2.4-1.6,4.9-1.6,7.5c0,0.1,0,0.2,0,0.3c0.8,16,25.7,28.6,57.8,30.1c13.3-2.4,26.3-7,38.1-13.7
			C617.6,125,583,126.4,557.2,101.5z"/>
		<path fill="#008C95" d="M681.7,99.2c0-0.7,0.1-1.5,0.1-2.2C681.8,97.7,681.8,98.5,681.7,99.2z"/>
		<path fill="#FDB525" d="M679.8,61.2c0.2,1,1.5,7.6,0.7,15.3c-2-9.8-5.8-11.5-20.3-4c-14.5,7.5-9,25.4-9,25.4
			c-7.2,2.2-16.5-2.2-19.7-7c-1.8-2.7-2.7-5.4-2.8-8.1c-0.7-9.6,7.1-18.1,7.1-18.1s14.7-14.2,27.4-12.5c3.3,0.4,6,1.1,8.1,1.8
			C677.5,56.2,679.5,59.2,679.8,61.2z"/>
		<path fill="#FFFFFF" d="M672.2,61.2c4,2.5,6.6,6.4,8.5,11c0.1-5.7-0.8-10.1-0.9-10.9c-0.4-2-2.3-5-8.4-7.2
			c-2.2-0.7-4.8-1.4-8.1-1.8c-12.8-1.7-27.4,12.5-27.4,12.5s-2,2.2-4,5.7C642.4,59.8,658.2,53.3,672.2,61.2z"/>
		<path opacity="0.4" fill="#F58020" enable-background="new    " d="M635.3,65.3c-1.7,2-7.3,9.3-6.7,17.6c0.2,2.6,1,5.4,2.8,8.1
			c3.2,4.8,12.6,9.3,19.7,7c0,0-3.5-11.5,2.6-19.9C649.4,71.1,642.5,64.7,635.3,65.3z"/>
		<path fill="#F58020" d="M665.4,86.5c-2.1,3.3-5.8,7.1-12.3,10.6c-0.6,0.3-1.3,0.6-1.9,0.8c0,0-5.5-17.8,9-25.4
			c14.5-7.5,18.3-5.8,20.3,4c-0.3,3.4-1.1,7.1-2.6,10.6c-0.7,1.8-1.7,3.6-2.8,5.3C672.7,86.9,665.4,86.5,665.4,86.5z"/>
		<path fill="#4EC1E0" d="M681.7,99.2c-0.5,11.7-1.7,22.5-3.4,32.4c-15.4,12.7-37.2,20.6-62.6,21.4c-25.4,0.8-47.6-5.8-63.7-17.6
			c-3.3-12.2-5.1-24.1-5.6-34c0.9,17.8,31.5,31.3,68.7,30.1C650.9,130.5,679.8,116.2,681.7,99.2z"/>
		<path fill="#FDB525" d="M675.1,92.5c0.3,0.7,0.5,1.4,0.6,2.2c-1.7,3.8-3.8,7-6.5,9.7c-2.7,2.7-6.1,5-10.6,7.1
			c-23.4,11.2-69.3,21-101.6-10.1c0,0-0.6-1.6-1.1-3.8c-1.2-5.3-2.1-14.7,5.3-18l0,0c8.9,3.9,14.4,4.3,22.2-3.5
			c2.9-2.9,4.5-6.1,5.3-9.3c0.2,0.4,2.4,3.3,9.3,1.5c5.7,16.8,30.3,14.6,30.3,14.6l0.2,0c0.2,2.6,1,5.4,2.8,8.1
			c3.2,4.8,12.6,9.3,19.7,7c0.6-0.2,1.3-0.5,1.9-0.8c6.4-3.5,10.1-7.4,12.3-10.6C665.4,86.5,672.7,86.9,675.1,92.5z"/>
		<path opacity="0.4" fill="#F58020" enable-background="new    " d="M602.3,109.7c9-18.1,32-3.3,47.2-10.9c0.3-0.2,0.5-0.4,0.7-0.6
			c-7,1.6-15.7-2.7-18.8-7.3c-1.8-2.7-2.7-5.4-2.8-8.1l-0.2,0c0,0-24.6,2.2-30.3-14.6c-6.9,1.8-9.1-1.1-9.3-1.5
			c-0.8,3.2-2.4,6.4-5.3,9.3c-7.8,7.8-13.3,7.4-22.2,3.5l0,0c-7.3,3.3-6.5,12.7-5.3,18c0.5,2.3,1.1,3.8,1.1,3.8
			c14.4,13.9,31.4,19.6,48,20.7c-0.5-0.6-0.9-1.2-1.3-1.8C602.6,116.8,601.3,113.3,602.3,109.7z"/>
		<path fill="#FDB525" d="M641.1,22.3c6.1-0.5,20.3-0.2,28.2,11.7c0,0,6.3,9.9,2.4,19.4c0.7-7.2-4.7-11.4-9.3-11.2
			c-12.6,0.6-21.8,5.9-29.2,12.4c-4.3,3.7-13.3,18.2-4.7,28.3c0,0-24.6,2.2-30.3-14.6c-0.1-0.3-0.2-0.7-0.3-1
			c-1.6-5.6-1.2-13.1,2.6-23.2c0,0,9.4-10.7,37.8-21.4C638.2,22.7,639.3,22.5,641.1,22.3z"/>
		<path fill="#FFFFFF" d="M669.2,34c-7.9-11.9-22.1-12.2-28.2-11.7c-1.8,0.2-2.9,0.4-2.9,0.4c-28.4,10.7-37.8,21.4-37.8,21.4
			c-0.4,1.2-0.8,2.3-1.1,3.4c18.2-14.9,50.2-28,67.7-5.1c0.2,0.5,0.4,0.9,0.5,1.4c2.6,1.8,4.6,5.1,4.2,9.7
			C675.6,43.9,669.2,34,669.2,34z"/>
		<path opacity="0.4" fill="#F58020" enable-background="new    " d="M600.4,44.1c-3.7,10.1-4.1,17.6-2.6,23.1
			c0.1,0.4,0.2,0.7,0.3,1c5.7,16.8,30.3,14.6,30.3,14.6c-7-8.2-2.3-19.3,2-25.2C623.7,47.8,611.6,41.7,600.4,44.1z"/>
		<path fill="#F58020" d="M662.3,42.2c4.6-0.2,10,4,9.3,11.2l-0.2,0.7c-2.2-0.7-4.8-1.4-8.1-1.8c-12.8-1.7-27.4,12.5-27.4,12.5
			s-7.8,8.5-7.1,18.1l-0.2,0c-8.6-10.1,0.5-24.6,4.7-28.3C640.5,48,649.7,42.8,662.3,42.2z"/>
		<path fill="#0094C8" d="M615.7,153c25.4-0.8,47.2-8.7,62.6-21.4c-8.9,50.7-32.9,77.4-60.9,76.7c-1.3,0-2.7-0.1-4.1-0.3
			c-10.3-1.2-19.3-5.6-27.1-12c-12.9-10.6-22.4-27-29-44.3c-2.1-5.4-3.8-10.9-5.3-16.3C568.1,147.2,590.3,153.8,615.7,153z"/>
		<path fill="#FFFFFF" d="M681.7,99.2c-0.8,7.3-6.6,14.1-15.8,19.6c0.5,7,0.4,14.2-0.2,21.3c4.5-2.5,8.7-5.4,12.6-8.5
			C680,121.7,681.2,110.9,681.7,99.2z"/>
		<path fill="#FFFFFF" d="M664.9,147.1c-2.5,18.4-8.8,36.3-19.3,51.3c13.6-10.8,24.6-30.2,30.7-57.7
			C672.6,142.9,668.8,144.8,664.9,147.1z"/>
		<path opacity="0.2" fill="#006394" enable-background="new    " d="M622.4,143.6c-15.8-10.2-36-10.8-52.4-3.2
			c-1.6,0.9-2.9,1.9-4.1,3.1c14.1,6.6,31.1,10,49.8,9.4c5.4-0.2,10.7-0.7,15.7-1.5C628.6,148.6,625.5,145.9,622.4,143.6z"/>
		<path opacity="0.2" fill="#006394" enable-background="new    " d="M638.4,160.9c-1.8-3.4-4.3-6.6-7-9.4
			c-5.1,0.8-10.3,1.3-15.7,1.5c-18.7,0.6-35.7-2.9-49.8-9.4c-3.8,4-5.1,9.8-5.4,15.9c6.3,14.3,14.9,27.5,25.8,36.5
			c7.8,6.5,16.8,10.8,27.1,12c1.4,0.2,2.7,0.3,4.1,0.3c10,0.2,19.5-3,28-9.6C645.7,185.8,644.1,173.1,638.4,160.9z"/>
		<path fill="#FDB525" d="M641.1,22.3c-1.8,0.2-2.9,0.4-2.9,0.4c-16.2-10.2-38.4,10.1-44.6,19.2c-1.9,2.8-8.9,24.1,3.8,25.5l0.4-0.1
			c0.1,0.4,0.2,0.7,0.3,1c-6.9,1.8-9.1-1.1-9.3-1.5c2.4-9.8-3-19.8-5.1-23.1c0-0.1-0.1-0.2-0.1-0.2c-0.1-0.3-0.3-0.6-0.5-0.8
			c0,0,0,0,0,0c0,0-12.7-3.7-22.6-4.2c0.2-2.2,0.7-5,1.3-6.5c4-9.1,14.6-17.7,34.4-23.3C610.2,4.7,632.4,10.4,641.1,22.3z"/>
		<path fill="#FFFFFF" d="M638.2,22.7c0,0,1.1-0.2,2.9-0.4c-8.7-11.9-30.9-17.6-45-13.7c-15.5,4.3-25.3,10.6-30.8,17.4
			c18.4-8.8,39.3-15.5,55.3-4.9C626.6,19.3,632.8,19.2,638.2,22.7z"/>
		<path opacity="0.4" fill="#F58020" enable-background="new    " d="M561.7,32.1c-0.6,1.5-1,4.2-1.2,6.3c9.9,0.4,22.6,4.2,22.6,4.2
			c0,0,0,0,0,0c0.2,0.3,0.4,0.5,0.5,0.8c0.1,0.1,0.1,0.2,0.1,0.2c2,3.3,7.4,13.4,5.1,23.1c0.2,0.4,2.4,3.3,9.3,1.5
			c-0.1-0.3-0.2-0.7-0.3-1l-0.4,0.1c-12.7-1.4-5.7-22.7-3.8-25.5c0.4-0.6,0.9-1.2,1.4-1.9C586.8,31.8,572.3,26.9,561.7,32.1z"/>
		<path fill="#F58020" d="M593.7,41.9c6.2-9.1,28.3-29.4,44.6-19.2c-28.4,10.7-37.8,21.4-37.8,21.4c-3.7,10.1-4.1,17.6-2.6,23.2
			l-0.4,0.1C584.7,66,591.8,44.7,593.7,41.9z"/>
		<path fill="#0094C8" d="M617.4,208.3L617.4,208.3c0,0.1-6.9,27.9-23.5,40.3c-3.3-10.7-11.7-19.2-22.2-22.8
			c13.3-12.2,14.6-29.8,14.6-29.8c7.8,6.5,16.8,10.8,27.1,12C614.7,208.2,616,208.3,617.4,208.3z"/>
		<path opacity="0.3" fill="#006394" enable-background="new    " d="M589.3,203.6c-1.4,5.6-4.3,13.6-10.3,20.8
			c4.3,2.3,8.1,5.4,11.3,9.1c3.2-8,5.6-16.4,10.1-24.2C596.5,207.8,592.8,205.9,589.3,203.6z"/>
		<path fill="#4EC1E0" d="M626.4,513.8c1.7,21.7-4.3,38.9-10.3,42.6c-4-11.9-8.1-21.8-8.1-21.8s-6.2,0.4-12.3,0.5
			c0-0.1-0.1-0.1-0.1-0.1c0,0,6.7-22,4.4-35.7c-2.3-13.6-7.3-35.2-6.7-46.7c7.3-1.4,13-4.9,15.1-11.1l0.1,0c0,1.2,0,2.5,0.1,3.7
			C609.4,472.1,624.8,492.8,626.4,513.8z"/>
		<path fill="#0094C8" d="M616.1,556.4c4.5,13.2,8.8,28.8,7.5,36.3c0,0-2.7,0.6-7.4,0.9c0,0-8.5-42.9-20.4-58.5
			c6.1-0.1,12.3-0.5,12.3-0.5S612.1,544.5,616.1,556.4z"/>
		<path fill="#0086B0" d="M616.1,593.7c4.7-0.4,7.4-0.9,7.4-0.9s-13.6,11.9-42.9,7.5c-21.9-3.3-46-20.1-58.6-35.1
			c4.5,2.3,9.3,3.6,14.2,3.5l0,0.4C567.1,594.4,601.4,594.9,616.1,593.7z"/>
		<path fill="#4EC1E0" d="M603.4,381.8c6.9,14.5,4.9,39.5,5.1,59.8l-0.1,0c-2.1,6.3-7.8,9.7-15.1,11.1c-11.6,2.2-27.3-0.8-39.1-6.3
			c25-0.8,32.7-52,16.6-62c-10.5-6.5-17.9,0.8-18.5,1.4c1.8-2.7,3.8-4.9,6-6.8c1-0.9,2.1-1.7,3.1-2.4
			C575.9,367.5,598.6,371.8,603.4,381.8z"/>
		<path fill="#4EC1E0" d="M603.4,381.8c6.9,14.5,4.9,39.5,5.1,59.8l-0.1,0c-2.1,6.3-7.8,9.7-15.1,11.1c-11.6,2.2-27.3-0.8-39.1-6.3
			c25-0.8,32.7-52,16.6-62c-10.5-6.5-17.9,0.8-18.5,1.4c1.8-2.7,3.8-4.9,6-6.8c1-0.9,2.1-1.7,3.1-2.4
			C575.9,367.5,598.6,371.8,603.4,381.8z"/>
		<path fill="#FFFFFF" d="M601.2,449.9c0,0.5,7.3-6.7,7.3-7.1c0-1.2,0,0,0-1.3c-0.3-20.3,1.7-45.3-5.1-59.8
			c-4.7-9.9-27.5-14.3-41.9-5c-1.1,0.7-2.1,1.5-3.1,2.4c-1.3,1.1-2.5,2.4-3.7,3.9c13.1-7.3,32.1-6,40.2,2.3
			C601.1,391.8,599.5,425.2,601.2,449.9z"/>
		<path fill="#FFFFFF" d="M626.4,513.8c-1.5-19.2-14.4-39.3-17.3-62.8c-2.6,2.9-4.4,3.9-6.7,5c4,15.7,17,47.8,19.1,56.6
			c2.6,11.2,1.4,33.1-6.6,40.2c0.4,1.2,0.8,2.4,1.2,3.6C622.1,552.7,628.1,535.5,626.4,513.8z"/>
		<path fill="#0094C8" d="M616.1,593.7c-14.7,1.2-49.1,0.7-79.9-24.6l0-0.4c0.1,0,0.2,0,0.3,0c1.7-0.1,35.9-0.7,49.5-33.6
			c2.2,0.2,6,0.2,9.7,0.1C607.6,550.7,616.1,593.7,616.1,593.7z"/>
		<path opacity="0.2" fill="#006394" enable-background="new    " d="M586,544.6c-10.8,18.2-27.9,24.7-39.1,27
			c18.4,12.4,37.3,16.6,51.4,17.7C586.9,578.4,583.8,561.4,586,544.6z"/>
		<path fill="#FDB525" d="M588.8,66.8c-0.8,3.2-2.4,6.4-5.3,9.3c-7.8,7.8-13.3,7.4-22.2,3.5l0,0c-7.3,3.3-6.5,12.7-5.3,18
			c-2.8-0.9-5.6-2.3-8.1-4c-10.4-7.1-17.8-20.4-15.8-30.5c0.7-2.9,5.8-17.3,33.8-4.4c8.8,4.1,20.8-8.4,17.8-15
			C585.7,46.9,591.1,57,588.8,66.8z"/>
		<path opacity="0.4" fill="#F58020" enable-background="new    " d="M568.5,59.4c-0.9-0.1-1.7-0.3-2.6-0.7
			c-27.9-12.9-33,1.5-33.8,4.4c-2,10.2,5.4,23.4,15.8,30.5c2.6,1.8,5.3,3.2,8.1,4c-1.2-5.3-2.1-14.7,5.3-18l0,0
			c5.2,2.3,9.2,3.3,13.2,2.3C576.6,73.9,573.7,65.5,568.5,59.4z"/>
		<path fill="#0094C8" d="M593.9,248.6c0.9,3,1.5,6.1,1.6,9.4c0.6,19.4-14.1,35.1-33.5,35.7c4.4-20.1,5.9-43.4,2.7-69.5
			c2.4,0.3,4.8,0.8,7,1.6C582.2,229.4,590.5,237.9,593.9,248.6z"/>
		<path opacity="0.3" fill="#006394" enable-background="new    " d="M570.7,251.6c0,12.7-1.1,25.2-3.3,37.2
			c8.8-1.8,16.1-7.4,20.2-15C586.7,263.6,580.7,253.8,570.7,251.6z"/>
		<path fill="#4EC1E0" d="M600,499.4c2.3,13.6-4.4,35.7-4.4,35.7c0,0,0.1,0.1,0.1,0.1c-3.8,0.1-7.5,0.1-9.7-0.1
			c-13.5,32.9-47.7,33.5-49.5,33.6c-0.1,0-0.2,0-0.3,0c-4.9,0.1-9.7-1.2-14.2-3.5c-11.5-6-21-19.2-24.8-35.8
			c-2.6-11.4-2.2-22.9,1.2-32.5c2.2-6.3,6-13.5,10-17.7c10-10.8,25.8-31.7,29-48.9c0.1-0.5,0.2-0.9,0.3-1.4c-1,6.5,6.3,13,16.5,17.7
			c11.8,5.4,27.5,8.5,39.1,6.3C592.6,464.1,597.6,485.7,600,499.4z M543.3,553.6c8.8-5.5,12.9-20.7,9.3-36.9
			c-2.5-11.1-8.2-20.2-14.8-25.2c-4.5-3.4-9.5-4.9-14.3-3.8c-11.8,2.7-18,20-13.7,38.7c4.3,18.7,17.3,31.7,29.1,29
			C540.5,555.1,542,554.5,543.3,553.6z"/>
		<path opacity="0.2" fill="#006394" enable-background="new    " d="M562.3,477.2c-0.7-1.8-2.5-21.7-2.2-23.8
			c-2.7-0.9-5.3-1.9-7.7-3.1c-5.9-2.7-10.6-5.8-13.8-9.2c-5.8,14.7-17.4,30.5-27,40.8c-3.3,3.5-6.8,9.9-9.1,16.2
			c-3.1,8.8-3.5,19.5-1.1,30.1c3.4,15.1,11.9,27.4,22.6,33c4,2.1,8.1,3.1,12.1,3l0.5,0c3.6-0.1,16.7-1.1,28.7-9.6
			C588,523.7,567.4,492.6,562.3,477.2z M545.7,557.2c-1.8,1.1-3.8,2-5.8,2.4c-1.2,0.3-2.4,0.4-3.6,0.5c0,0,0,0,0,0
			c-13.4,0.4-26.3-13.3-30.7-32.7c-2.2-9.8-1.9-19.7,1-27.8c3.1-8.8,8.8-14.5,16-16.1c1.2-0.3,2.4-0.4,3.6-0.5
			c4.8-0.1,9.8,1.6,14.3,5c7.7,5.8,13.7,15.9,16.4,27.7C560.8,533.5,556.2,550.6,545.7,557.2z"/>
		<path fill="#F58020" d="M583.7,43.6c3,6.6-9,19.1-17.8,15c-27.9-12.9-33,1.5-33.8,4.4c0.3-1.4,0.7-2.8,1.4-4.1
			c3.9-7.5,12.8-17.3,18.3-19.6c2.1-0.9,5.2-1.1,8.6-1c9.9,0.4,22.6,4.2,22.6,4.2c0,0,0,0,0,0c0.1,0.1,0.3,0.4,0.5,0.8
			C583.7,43.5,583.7,43.6,583.7,43.6z"/>
		<path fill="#008C95" d="M583.1,42.6c0.2,0.3,0.4,0.5,0.5,0.8C583.3,42.9,583.1,42.6,583.1,42.6z"/>
		<path fill="#4EC1E0" d="M570.8,384.4c16,10,8.4,61.2-16.6,62c-10.2-4.7-17.5-11.2-16.5-17.7c0-0.2,0-0.3,0.1-0.5
			c1.4-7.3,2.9-13.8,4.6-19.5c2.9-9.8,6.2-17.3,10-22.9C553,385.2,560.3,377.9,570.8,384.4z"/>
		<path opacity="0.2" fill="#006394" enable-background="new    " d="M570.8,384.4c16,10,8.4,61.2-16.6,62
			c-10.2-4.7-17.5-11.2-16.5-17.7c0-0.2,0-0.3,0.1-0.5c1.4-7.3,2.9-13.8,4.6-19.5c2.9-9.8,6.2-17.3,10-22.9
			C553,385.2,560.3,377.9,570.8,384.4z"/>
		<path fill="#4EC1E0" d="M564.7,224.2c3.2,26.2,1.7,49.4-2.7,69.5c-2.1,9.5-4.8,18.3-7.9,26.3l-0.1,0c-7.3-9.4-19.1-15.3-35.2-17.4
			c-0.9-11.1-2.9-25.9-6.2-37c2.8,0.4,4.9,0.6,7.9,0.5c9-0.3,16.7-3.8,23.7-10.9c9.6-9.8,13.6-26.5,12.2-51.2
			c-1-16.3-4.4-34.5-8.6-45.2l0.1,0C556.8,182.2,562.2,204,564.7,224.2z"/>
		<path opacity="0.2" fill="#006394" enable-background="new    " d="M552.4,312c-7.3-6.6-17.2-11-29.7-13.2
			c-0.7-6.8-2-18.1-4.5-28.5c0.1,0,0.2,0,0.2,0c-0.4-1.4-0.7-2.8-1.1-4.3c-1.6-0.1-3.1-0.2-4.9-0.5c3.3,11.1,5.3,25.9,6.2,37
			c16.1,2.1,27.9,7.9,35.2,17.4l0.1,0c0.6-1.5,1.2-3.1,1.7-4.7C554.7,314.2,553.6,313.1,552.4,312C552.4,312,552.4,312,552.4,312z"
			/>
		<path fill="#0094C8" d="M556.3,204c1.4,24.7-2.5,41.4-12.2,51.2c-7,7.1-14.7,10.7-23.7,10.9c-3,0.1-5.1-0.1-7.9-0.5
			c3.3,11.1,5.3,25.9,6.2,37c16.1,2.1,27.9,7.9,35.2,17.4l0.1,0c-3.1,7.9-6.6,15.1-10.3,21.6c-0.2,0.4-0.5,0.8-0.7,1.2l0,0
			c2.6-6.5-1.4-25.2-43.1-24c-0.7,0-1.5,0.1-2.2,0.1l0,0c0.8-14.6-3.7-62.2-17.6-73c15.3-1.5,25,1,32.5,2.3
			c7.6,1.4,12.9,1.5,19.4-5.1c13.4-13.6,6.1-62.2-0.2-78.2c-5.8-15-15.5-39.9-25.3-47.7c-0.7-0.6-1.4-1.1-2.2-1.4
			c-9.8-5.1-37.8-9.8-75.8-4.5c0,0-4.4-12.5-14-14.4l0-0.3c11.9-1.9,24.9-3.5,39.3-4.6c24.7-2,46.6,2.5,58.5,8.7
			c6,3.1,11.2,8.6,16.2,16.4c5,7.9,9.8,18.2,15.1,31c1,2.3,1.9,4.5,2.8,6.7c0.5,1.3,1,2.6,1.5,3.8l-0.1,0
			C551.9,169.4,555.3,187.6,556.3,204z"/>
		<path fill="#FFFFFF" d="M566.4,249.3c-2.6,19.9-7.5,41.4-18.2,57.8c3.1,1.9,5.8,3.9,8.2,6.5c2.1-6.2,4-12.8,5.6-19.8
			C564.9,280.3,566.5,265.4,566.4,249.3z"/>
		<path fill="#FFFFFF" d="M543.7,160.3l-1.2-3.2c-0.1-0.2-0.2-0.4-0.3-0.7c-0.9-2.2-1.8-4.4-2.8-6.7c-5.7-13.9-10.2-23.3-14.7-30.4
			c-4.8-7.5-9.4-12.2-14.6-14.9c-8.8-4.6-26.3-9.3-49-8.6c-2.4,0.1-4.8,0.2-7.1,0.4c-9.6,0.8-18.9,1.8-27.9,3
			c0.5,0.5,0.9,1.1,1.4,1.7c61.3-3.1,84.7,12,85.5,12.7c3.2,2.5,31.5,55.6,38.1,80.7C549.7,181.3,546.9,168.5,543.7,160.3z"/>
		<path fill="#0094C8" d="M552.4,385.9c-3.9,5.6-7.2,13.1-10,22.9c-2.9,0.1-16.1,6.4-21.2,8.6c-0.7,0.3-1.3,0.6-1.6,0.7
			c-2.7,1-4.6-15.8,3.9-22.7c0,0,1.3-0.5,3.4-1.4c7.5-3.1,25.1-10.7,31.5-14.9C556.2,380.9,554.2,383.2,552.4,385.9z"/>
		<path fill="#FDB525" d="M552.6,516.7c3.7,16.2-0.4,31.4-9.3,36.9l-0.1-0.1c-9.5,2.2-20.5-10.4-24.5-28c-4-17.7,0.4-33.7,10-35.9
			c3-0.7,6.1,0.1,9.1,2l0,0C544.4,496.5,550.1,505.6,552.6,516.7z M536.7,543.2l5.6-0.5c-6.8-13.2-10.3-28-10.1-42.8L527,501
			C527,515.6,530.3,530.1,536.7,543.2z"/>
		<path fill="#0086B0" d="M499.9,318.9c41.7-1.3,45.7,17.5,43.1,24l0,0c-3.4,5.8-9.1,11.5-16.3,16.8c1.6-9.2,2.2-15.5,2.2-16.4
			c0.2-3.6-4.7-7.2-25.5-7.1c-5.2,0-10.7,0.5-16.5,1.3l10.8-18.5C498.4,318.9,499.2,318.9,499.9,318.9z"/>
		<path fill="#4EC1E0" d="M531.7,164.9c6.2,16.1,13.6,64.7,0.2,78.2c-6.5,6.6-11.7,6.5-19.4,5.1c24.2-22.5-9.3-108.5-19.2-113.4
			l13-17.6C516.2,125,525.9,150,531.7,164.9z"/>
		<path fill="#F58020" d="M543.3,553.5l0.1,0.1c-1.4,0.9-2.9,1.5-4.5,1.9c-11.8,2.7-24.9-10.3-29.1-29c-4.3-18.7,1.9-36.1,13.7-38.7
			c4.8-1.1,9.8,0.4,14.3,3.8l0,0c-3-1.9-6.1-2.7-9.1-2c-9.5,2.2-14,18.2-10,35.9C522.8,543.1,533.7,555.6,543.3,553.5z"/>
		<path fill="#FDB525" d="M542.3,542.6l-5.6,0.5c-6.4-13.1-9.7-27.6-9.7-42.2l5.2-1.1C532,514.7,535.5,529.5,542.3,542.6z"/>
		<path fill="#4EC1E0" d="M503.4,336.2c20.8-0.1,25.8,3.5,25.5,7.1c-0.1,0.8-0.6,7.2-2.2,16.4c-1.1,5.9-2.6,12.9-4.7,20.5
			c-4.9,17.3-13.3,37.4-27.2,52c-11.9,12.6-27.8,21.2-49.2,20.9c53.9-0.5,46.9-82.5,41.2-115.5l0-0.1
			C492.6,336.7,498.2,336.2,503.4,336.2z"/>
		<path fill="#0094C8" d="M521.9,380.2c2.6,4.1,4.3,8.8,4.9,13.9c-2.1,0.9-3.4,1.4-3.4,1.4c-8.5,6.9-6.6,23.7-3.9,22.7
			c0.3-0.1,0.9-0.4,1.6-0.7c-5.8,8.5-15.4,14.3-26.4,14.8C508.6,417.6,517,397.5,521.9,380.2z"/>
		<path fill="#FDB525" d="M456.6,229.5c-7-36.3-21.1-77.8-35.2-97.7c39.6-6.4,62.1-1.7,71.9,3.1c9.8,4.8,43.4,90.9,19.2,113.4
			c-7.5-1.3-17.2-3.8-32.5-2.3c-1.4,0.1-2.8,0.3-4.2,0.5c-5.3,0.7-10.6,1.9-16,3.4C459.1,243.4,458,236.5,456.6,229.5z M494.2,205.1
			c1.8-0.9,3.3-2.3,4.7-4.2c-2.6-19-16.2-45.9-16.2-45.9c-10.5-2-13.2,4.7-13.2,4.7s0.2,0.5,0.6,1.3c2.2,5.3,10.6,25.9,15.7,44.5
			C489.2,206.4,491.9,206.2,494.2,205.1z"/>
		<path fill="#0086B0" d="M506.4,117.2l-13,17.6c-9.8-4.8-32.3-9.5-71.9-3.1l7-20.5c38-5.2,66-0.6,75.8,4.5
			C505,116.2,505.7,116.7,506.4,117.2z"/>
		<path fill="#F58020" d="M499,200.9c-1.4,1.9-3,3.3-4.7,4.2c-3.1-18.9-16-44.4-16-44.4c-3.5-0.7-6.2-0.4-8.1,0.3
			c-0.4-0.9-0.6-1.3-0.6-1.3s2.7-6.7,13.2-4.7C482.8,155,496.3,181.8,499,200.9z"/>
		<path fill="#0094C8" d="M430.2,317.6c-0.7-24.7-10.6-34.7-10.6-34.7c-5.1,1.9-10,3.6-14.6,4.9c-4.6,1.2-9,2-13.1,2.1
			c-2.6,0.1-5.2-0.1-7.6-0.6c-12.2-2.3-30.1-11.1-46.4-40.1c-14.3-25.4-21.6-72.2-22-89c-0.2-8.5-14.4-14.3-28.8-1.9
			c2.1-2.6,4.4-5.1,6.8-7.6c12.4-12.6,39.2-41.1,120.3-54.1l0,0.3c9.7,1.9,14,14.4,14,14.4c-2.7,0.4-5.5,0.8-8.3,1.3
			c-42.3,7.2-76.9,25.4-81.2,36.8c-2.8,7.4-4,15.9-4,25.1c-0.1,40.8,24.7,92.8,52.6,98.1c13.9,2.6,42.8-14.5,72.3-22.6
			c5.3-1.5,10.7-2.7,16-3.4c1.5-0.2,2.9-0.4,4.2-0.5c13.9,10.8,18.5,58.4,17.6,73l0,0c-46.7,2.5-132.8,38.9-139.4,73.4
			c-1.5,7.9,10.6,15.8,19.1,16.8c-13.3-0.6-25.1-4.3-35.4-9.4c-1-3.6-1.2-7-0.5-10.6c5.2-27.5,38.5-48.7,65.4-61.6
			C414.4,323.9,422.3,320.6,430.2,317.6z"/>
		<path fill="#0086B0" d="M497.7,319l-10.8,18.5c-40.4,5.7-90.9,28.9-105.2,43.8c-4.2,4.4-10.9,13.1-9.7,16.9
			c0.9,3,3.1,6.8,6.3,11.1c-0.3,0-0.7,0-1-0.1c-8.5-1-20.5-9-19.1-16.8C364.8,357.8,450.9,321.5,497.7,319z"/>
		<path fill="#006394" d="M494.2,205.1c-2.3,1.2-5.1,1.4-8.5,0.5c-5.1-18.6-13.4-39.2-15.7-44.5c2-0.7,4.6-1,8.1-0.3
			C478.2,160.7,491.1,186.2,494.2,205.1z"/>
		<path fill="#4EC1E0" d="M378.3,409.3c-3.2-4.3-5.4-8.1-6.3-11.1c-1.2-3.8,5.5-12.5,9.7-16.9c14.3-15,64.9-38.1,105.2-43.8l0,0.1
			c5.6,33,12.7,115.1-41.2,115.5c-4.5,0.2-9.3-0.7-14.4-2.5c4.1-7.8-30.7-38.8-41.4-28.3C385.2,417.7,381.3,413.3,378.3,409.3
			C378.3,409.3,378.3,409.3,378.3,409.3z"/>
		<path opacity="0.2" fill="#006394" enable-background="new    " d="M503.4,336.2c-3.8,0-7.8,0.3-11.9,0.7l0,0c0,0,0,0,0,0
			c-1.5,0.2-3,0.4-4.6,0.6l0,0.1c0.2,1,0.3,2,0.5,3c0,0,0,0.1,0,0.1c0.2,1.1,0.3,2.1,0.5,3.3c0,0,0,0,0,0c0.3,2.3,0.7,4.7,1,7.2
			c4.5,37.7,4.3,101.5-43.2,101.9c10.8,0.2,20.3-2,28.5-5.8c3.3-3.3,6.4-6.8,9.1-10.5c-0.3,0.3-0.7,0.5-1,0.8
			c7.5-11.6,11.7-28,12.5-49.1c0.5-13.6-0.4-26.8-1.6-37.3c11.7,0.1,23.3,1.6,34.2,4.5c1.1-7.1,1.5-11.8,1.6-12.5
			C529.1,339.6,524.2,336.1,503.4,336.2z"/>
		<path opacity="0.2" fill="#006394" enable-background="new    " d="M488.8,351.3c-0.6-5.1-1.3-9.8-2-13.7l0-0.1
			c-40.4,5.7-90.9,28.9-105.2,43.8c-4.2,4.4-10.9,13.1-9.7,16.9c0.9,3,3.1,6.8,6.3,11.1c0,0,0,0,0,0c0.6,0.7,1.1,1.5,1.8,2.3
			c2,2.5,4.3,5.2,6.9,7.9c18.4-11.2,35.6,5.8,51.6,17.6c1.7,1.1,2.8-0.7,4-3.3c-2.9-21.9-14.8-43.6-27.5-60.6
			C436.4,359,462.8,351.8,488.8,351.3z"/>
		<path fill="#4EC1E0" d="M455,554.2c3,2.5,6,3.4,8.5,2.3c5.2-2.4,6.1-12.9,2.1-23.5c-4.1-10.5-11.6-17.1-16.8-14.7
			c-2.2,1-3.7,3.5-4.3,6.9c-0.8,4.5-0.1,10.5,2.2,16.6C448.8,547.2,451.8,551.6,455,554.2z M471,535.3c6.5,19.6,3.5,37-10.6,51.3
			l-25.4-10.5c0,0-1.8,1.4-3.9,2.5c0,0-8.4-12.7-14.9-33.3c9.3-2.1,17.8-17.5,20.2-42.2C455.7,507.3,467.4,524.7,471,535.3z"/>
		<path opacity="0.2" fill="#006394" enable-background="new    " d="M434.3,571.2l-1.9,1.4c-2.6-4.6-7-13.2-11-24.8
			c9.1-5.1,15.9-19.4,18.6-39.2c3.5,1.3,6.7,3,9.6,5c-0.9,0.1-1.8,0.4-2.6,0.8c-3.4,1.6-5.8,5.2-6.7,10c-1,5.4-0.1,12.3,2.4,18.9
			c2.3,5.9,5.6,10.9,9.5,14.2c3,2.6,6.2,3.9,9.3,3.8l0,0c1.3,0,2.6-0.3,3.8-0.9c2-0.9,3.5-2.5,4.7-4.5c-0.4,9.6-3.9,18.1-10.7,25.7
			L434.3,571.2z"/>
		<path fill="#F58020" d="M465.5,533c4.1,10.5,3.1,21-2.1,23.5c-2.5,1.2-5.6,0.2-8.5-2.3c1.8,0.9,3.6,1.1,5.1,0.4
			c4.5-2.1,5.3-11.1,1.8-20.1c-3.5-9-9.9-14.7-14.4-12.6c-1.3,0.6-2.3,1.8-2.9,3.3c0.6-3.4,2-5.9,4.3-6.9
			C454,515.9,461.5,522.5,465.5,533z"/>
		<path fill="#FDB525" d="M456.6,229.5c1.4,7.1,2.4,13.9,3.2,20.4c-29.5,8.2-58.4,25.3-72.3,22.6c-27.9-5.3-52.7-57.2-52.6-98.1
			l0.2,0c4-10.2,46.7-36.2,86.3-42.7C435.6,151.7,449.7,193.2,456.6,229.5z M396.3,226.9c2-1,3.8-2.6,5.4-4.8
			c-3-21.6-18.4-52.1-18.4-52.1c-12-2.3-15,5.3-15,5.3s0.2,0.5,0.6,1.5c2.5,6.1,12,29.4,17.8,50.6
			C390.6,228.4,393.7,228.2,396.3,226.9z"/>
		<path fill="#F58020" d="M493.4,134.9c-9.8-4.8-32.3-9.5-71.9-3.1c2.9,4.1,5.8,9.1,8.6,14.8c20-2.6,40.3-2,59.8,2
			c-1.8-2.7-3.6-5.4-5.5-8c1.9,2.6,3.8,5.2,5.5,8c1.8,0.4,3.6,0.8,5.4,1.2c-1.8-0.4-3.6-0.8-5.4-1.2c18.6,28.7,27.8,65.4,18.9,99
			c1.3,0.2,2.6,0.5,3.8,0.7C536.8,225.8,503.2,139.7,493.4,134.9z"/>
		<path fill="#F58020" d="M421.4,131.8c-39.6,6.4-82.3,32.5-86.3,42.7l-0.2,0c0,4,0.2,8.1,0.7,12.3c26.2-21.7,59.9-35.7,94.5-40.2
			C427.2,140.9,424.3,135.9,421.4,131.8z"/>
		<path fill="#FDB525" d="M461.8,534.5c3.5,9,2.7,18.1-1.8,20.1c-1.5,0.7-3.3,0.5-5.1-0.4c-3.1-2.6-6.1-7-8.2-12.4
			c-2.3-6-3-12.1-2.2-16.6c0.7-1.6,1.6-2.7,2.9-3.3C451.9,519.8,458.3,525.4,461.8,534.5z M457.4,550.8l2.2-1.2
			c-1.6-10.1-3.5-15.2-7.9-23.9c-1,0.1-1.5,0.2-2.4,0.4C453.9,534.8,455.6,539.9,457.4,550.8z"/>
		<path fill="#FDB525" d="M459.6,549.6l-2.2,1.2c-1.8-10.9-3.5-16-8.1-24.8c1-0.2,1.5-0.2,2.4-0.4
			C456.1,534.3,457.9,539.5,459.6,549.6z"/>
		<path fill="#0094C8" d="M434.9,576.1l25.4,10.5c-2.9,12.3-10.5,19.3-17.4,19c-6.5-4.7-11.8-26.4-11.9-27c0,0,0,0,0,0
			C433,577.5,434.9,576.1,434.9,576.1z"/>
		<path fill="#0086B0" d="M428.4,111.3l-7,20.5c-39.6,6.4-82.3,32.5-86.3,42.7l-0.2,0c0-9.1,1.3-17.7,4-25.1
			c4.3-11.5,38.9-29.7,81.2-36.8C422.9,112.1,425.7,111.6,428.4,111.3z"/>
		<path fill="#4EC1E0" d="M419.6,282.9c0,0,9.9,10,10.6,34.7c-7.9,3-15.8,6.3-23.3,9.9c-27,12.9-60.2,34.1-65.4,61.6
			c-0.7,3.6-0.5,7,0.5,10.6c-27.7-13.7-43.7-37.5-43.7-37.5v0c9.8,4.4,20.1,4.8,28.7,0.2c17.9-9.6,21.8-37.3,8.6-61.8
			c-13.1-24.5-38.3-36.7-56.2-27.1c-7.3,3.9-12.3,10.9-14.7,19.4c-11.4-37.5-11.8-93.2,22.6-134.6c14.3-12.4,28.6-6.5,28.8,1.9
			c0.4,16.8,7.7,63.6,22,89c16.3,29,34.2,37.8,46.4,40.1c2.4,0.4,4.9,0.6,7.6,0.6c4.1-0.1,8.5-0.9,13.1-2.1
			C409.6,286.5,414.5,284.8,419.6,282.9z"/>
		<path fill="#FFFFFF" d="M302,168.7c7.3,7.8,11.2,17.1,14.2,26.8c-2.9-15-4.3-28.3-4.5-35.2c0-1.2-0.7-2.1-1.3-2.7
			c-1.5-1.5-4-2.2-6.9-2.2c-3,0.1-7.7,1.2-13.2,5.8c-3.1,3.7-5.8,7.5-8.3,11.5C287.8,166.7,296.4,162.6,302,168.7z"/>
		<path fill="#FFFFFF" d="M379.7,299.6c10.8,2.4,20.9-0.4,30.4-1.6c3.2-0.4,11.5-0.9,12.6,0.1c-1.6-4.8-3.4-8.1-4.6-10
			c-4.6,1.7-8.5,2.9-12,3.9c-5.3,1.4-9.9,2.1-14.1,2.3c-2.9,0.1-5.8-0.1-8.5-0.6c-13-2.5-32.2-11.8-49.3-42.2
			c-0.1-0.2-0.2-0.4-0.3-0.5C342.3,272.9,354.3,295.7,379.7,299.6z"/>
		<path opacity="0.2" fill="#006394" enable-background="new    " d="M430.2,317.6c-0.7-24.7-10.6-34.7-10.6-34.7
			c-5.1,1.9-10,3.6-14.6,4.9c-4.6,1.2-9,2-13.1,2.1c-2.6,0.1-5.2-0.1-7.6-0.6c-12.2-2.3-30.1-11.1-46.4-40.1
			c-14.3-25.4-21.6-72.2-22-89c-0.1-5.7-6.6-10.2-15.2-8.8c3.1,1.2,5.7,2.7,7.6,4.9c0.8,0.3,1.4,0.8,2,1.3c0.6,0.6,1.3,1.5,1.3,2.7
			c0.3,15.6,7.3,63.9,22.5,91c17.1,30.4,36.3,39.7,49.3,42.2c2.7,0.5,5.6,0.7,8.5,0.6c4.2-0.1,8.8-0.9,14.1-2.3
			c3.5-0.9,7.4-2.2,12-3.9c2.4,3.6,6.7,12.1,7.6,26.7c-7.1,2.8-14.1,5.8-20.8,9c-5.9,2.8-12.2,6.1-18.4,9.7
			c-15.9-19.3-32.1-29-42.4-39.7c-26-27.3-54-132.4-83.1-81c-6.3,28.6-3.4,57.7,3.4,80.3c2.4-8.5,7.4-15.5,14.7-19.4
			c17.9-9.6,43.1,2.5,56.2,27.1c13.1,24.5,9.3,52.2-8.6,61.8c-8.6,4.6-18.9,4.2-28.7-0.2v0c0,0,15.8,23.5,43.2,37.3c0,0,0,0,0,0
			c0.2,0.1,0.3,0.2,0.5,0.2c10.3,5.1,22.1,8.8,35.4,9.4c-8.5-1-20.5-9-19.1-16.8c2.4-12.8,22-30,40.3-41.5c-2.9-5.2-6-9.9-9.2-14.1
			c5.9-3.4,11.9-6.5,17.5-9.2C414.4,323.9,422.3,320.6,430.2,317.6z"/>
		<path fill="#0094C8" d="M431.2,450.6c-3,5.6-8,10-14.1,12.1c-2.4,0.8-4.9,1.3-7.5,1.4c-5.2,0.2-10-1.2-14.1-3.8
			c-6.9-4.3-11.7-11.9-11.9-20.7c-0.2-6.6,2.6-13.9,6.2-17.3C400.5,411.8,435.3,442.8,431.2,450.6z"/>
		<path opacity="0.2" fill="#006394" enable-background="new    " d="M400.5,435.8c-8.5-2.3-14.4,2.6-16.2,8.9
			c1.6,6.6,5.7,12.1,11.2,15.6c4.1,2.6,8.9,4,14.1,3.8c2.6-0.1,5.2-0.6,7.5-1.4c2.2-0.8,4.3-1.8,6.2-3.2
			C422.5,456.5,417.5,440.4,400.5,435.8z"/>
		<path fill="#0094C8" d="M431,578.7c0.1,0.6,5.4,22.3,11.9,27c-3.7-0.2-7.3-2.4-9.9-7.1l-5.1-18.4C428.9,579.8,430,579.3,431,578.7
			z"/>
		<path fill="#4EC1E0" d="M416.8,485.1c8.4,1.1,19.5,18,19.5,18c-2.4,24.7-10.9,40.1-20.2,42.2c-4.2,1-8.5-0.8-12.5-5.6
			c-3.5-4.8-5.8-8.5-9.4-15.9c-3.6-7.3-2.4-22.1,3.5-30.6c0.8,7.8,1.6,13.3,1.6,13.3c4.8,7.3,17.3,2.4,17.9-8.5c0,0-0.5-4.9-0.7-13
			L416.8,485.1z"/>
		<path opacity="0.2" fill="#006394" enable-background="new    " d="M423.2,517.1c-2.7-4.1-6.5-5.2-10.5-4.6
			c-1.7,0.9-3.6,1.5-5.4,1.7c-0.4,0-0.7,0.1-1.1,0.1c-3.8,0.1-7.2-1.4-9.6-4.2c-0.4,4.7,0.1,9.1,1.4,11.8c0.1,0.3,0.2,0.5,0.4,0.7
			c3.3,6.6,5.4,10,8.6,14.4c1.7,2,4.2,4.3,7.1,4.2c0.4,0,0.7-0.1,1.1-0.1c5.1-1.2,9.4-8,12.5-17
			C425.8,521.8,424.1,519.8,423.2,517.1z"/>
		<path fill="#4EC1E0" d="M428,580.1l5.1,18.4c-12.8,1-19-39.2-23.5-50.7c-2.4-3.3-4.3-5.8-6-8.1c4,4.8,8.3,6.6,12.5,5.6
			c6.5,20.7,14.9,33.3,14.9,33.3s0,0,0,0C430,579.3,428.9,579.8,428,580.1z"/>
		<path fill="#0094C8" d="M397.7,493.3c-1-9.6-2.1-22.6-2.1-33l0,0c4.1,2.6,8.9,4,14.1,3.8c2.6-0.1,5.2-0.6,7.5-1.4
			c-0.7,8.8-0.8,16.5-0.7,22.5c0.1,8.1,0.7,13,0.7,13c-0.6,11-13.2,15.8-17.9,8.5C399.2,506.6,398.5,501.1,397.7,493.3z"/>
		<path opacity="0.2" fill="#006394" enable-background="new    " d="M407.9,464c-4.5-0.2-8.7-1.5-12.3-3.8l0,0
			c0,10.5,1.1,23.4,2.1,33c0.8,7.8,1.6,13.3,1.6,13.3c2.4,3.6,6.6,4.2,10.4,2.6C408,494.3,407.2,478.9,407.9,464z"/>
		<path fill="#F58020" d="M401.7,222.1c-1.6,2.2-3.4,3.8-5.4,4.8l0,0c-3.5-21.5-18.2-50.4-18.2-50.4c-4-0.8-7-0.4-9.2,0.4
			c-0.4-1-0.6-1.5-0.6-1.5s3-7.6,15-5.3C383.3,170,398.7,200.5,401.7,222.1z"/>
		<path fill="#006394" d="M396.3,226.9L396.3,226.9c-2.6,1.3-5.8,1.6-9.6,0.6c-5.8-21.2-15.3-44.6-17.8-50.6
			c2.2-0.8,5.2-1.1,9.2-0.4C378.1,176.4,392.8,205.4,396.3,226.9z"/>
		<path fill="#008C95" d="M378.3,409.3C378.3,409.3,378.3,409.3,378.3,409.3c-0.3,0-0.7,0-1-0.1C377.6,409.2,378,409.2,378.3,409.3z
			"/>
		<path fill="#0094C8" d="M335.6,300.6c13.1,24.5,9.3,52.2-8.6,61.8c-8.6,4.6-18.9,4.2-28.7-0.2c-3.6-1.6-7.1-3.7-10.5-6.4
			c3.4,0.9,6.9,1.4,10.6,1.3c12.3-0.4,26.3-9.6,29-16.5c-0.1-34.7-31.2-57.7-41.6-52.6c-10.3,5.1-19,13.2-22.4,23.8l0,0
			c-0.8-6.7-0.3-13.2,1.4-18.9l0,0c2.4-8.5,7.4-15.5,14.7-19.4C297.2,264,322.4,276.1,335.6,300.6z"/>
		<path opacity="0.3" fill="#006394" enable-background="new    " d="M331.8,302.7c-2.4-4.4-5.2-8.4-8.3-11.9
			c-3.4-0.6-6.7,0.8-8.2,4.9c0,1.2,0.1,2.1,0.1,3.1c10.2,11.6,16.1,26.6,16.1,41.9l0,0.8l-0.3,0.7c-2.9,7.7-14.4,15.5-25.6,18.2
			c2.9,0.8,5.9,1.1,8.7,1.1c3.8-0.1,7.4-1,10.6-2.8c7.4-4,12.3-11.8,13.7-22.1C340.2,325.8,337.7,313.7,331.8,302.7z"/>
		<path fill="#0094C8" d="M285.6,288.1c10.4-5.2,41.5,17.9,41.6,52.6c-2.7,7-16.7,16.2-29,16.5c-3.7,0.1-7.3-0.3-10.6-1.3
			c-1.9-0.5-3.8-1.3-5.6-2.1c2.6-3.7,6.4-8.1,8-11.6c3.4-7.6-2.6-12.4-11.8-12.2c-5.3,0.2-10.2,1.5-14.5,3.5l-0.1-0.3
			c-1.1-3.3-1.8-6.8-1.9-10.5c-0.1-3.8,0.4-7.5,1.5-10.8C266.6,301.3,275.4,293.2,285.6,288.1z"/>
		<path opacity="0.3" fill="#006394" enable-background="new    " d="M309.6,305.1c-1.2-0.3-2.4-0.6-3.5-0.9
			c-10.7-0.9-17.6,6.5-22.1,14.9c-0.7,2.2-0.9,4.9,0.2,7.1c4.1,0.9,7.4,2.8,9.3,5.7c2.3,3.4,2.5,7.6,0.5,12
			c-1.1,2.6-3.1,5.2-5.1,7.8c3,0.8,6.1,1.2,9.3,1.1c10.4-0.3,22.1-8,24.8-13.2C322.7,323.5,315.2,311.7,309.6,305.1z"/>
		<path fill="#FDB525" d="M321.4,438.4c7.8,15.7-13,24.5-20.9,24c-21-1.4-22.5-22.9-22.5-22.9c11.4-2.4,16.1-14.8,13.8-25.4
			c0,0,1.6,3.4,4.4,7.8c1.5,2.4,3.4,5.1,5.5,7.8C307.8,437.4,318.6,432.6,321.4,438.4z"/>
		<path fill="#FFFFFF" d="M321.4,438.4c-2.9-5.8-13.7-1-19.7-8.6c-2.1-2.7-4-5.4-5.5-7.8c-2.8-4.5-4.4-7.8-4.4-7.8
			c0.6,2.9,6.1,19,8.6,21.4c10,10,14.3-0.4,22.7,10.7C323.3,443.8,322.8,441.2,321.4,438.4z"/>
		<path opacity="0.4" fill="#F58020" enable-background="new    " d="M299.5,441.2c-4.6-0.6-6.9-6.3-9-12.4
			c-2.2,5.2-6.4,9.4-12.5,10.7c0,0,1.4,21.5,22.5,22.9c4.9,0.3,14.6-2.9,19.6-9.1C316.5,446.7,308.7,442.4,299.5,441.2z"/>
		<path fill="#4EC1E0" d="M303.7,401c1.5,9.7-1.5,18.4-7.4,20.9l-0.1,0.1c-2.8-4.5-4.4-7.8-4.4-7.8c-1.9-8.4-15.5-23.2-36.4-21.4
			c-40.6,3.4-56.6,32.3-62.1,44.8c-0.2,0.4-0.3,0.8-0.5,1.1c-4.2-4.7-6.7-12.9-6.3-22.1c1-20.6,16.7-46.2,62-49.3
			C285.4,364.5,301.1,384.3,303.7,401z"/>
		<path fill="#0094C8" d="M279.4,359.7c17,9.2,24,27.3,24.3,41.2c-2.6-16.6-18.3-36.4-55.2-33.9c-45.2,3.1-61,28.7-62,49.3
			c0.2-23.1,13.5-54.6,53.1-61.4c2.7-0.5,5.5-0.8,8.4-1C261,352.9,271.3,355.3,279.4,359.7z"/>
		<path opacity="0.2" fill="#006394" enable-background="new    " d="M252.4,377.2c1-4.8,0.8-11.9-2.9-16.6
			c-2.7-2.6-5.9-4.5-9.3-5.7c-0.2,0-0.3,0-0.5,0.1c-39.6,6.8-52.9,38.3-53.1,61.4c-0.4,9.2,2.1,17.4,6.3,22.1
			c0.2-0.4,0.3-0.7,0.5-1.1c4.4-9.8,15.1-29.7,39.1-39.4C240.5,392.4,248.8,387,252.4,377.2z"/>
		<path fill="#0094C8" d="M282.1,353.8c-1.6,2.2-2.6,4.2-2.5,5.7l-0.2,0.3c-8.1-4.4-18.4-6.8-31.2-5.8c-2.9,0.2-5.8,0.6-8.4,1v0
			c0,0,9.1-14.5,24.1-21.4c4.4-2,9.2-3.4,14.5-3.5c9.2-0.3,15.1,4.5,11.8,12.2C288.5,345.7,284.7,350,282.1,353.8z"/>
		<path fill="#FFFFFF" d="M275.1,334.6c-2.7,0.4-5.4,1.1-8,2.2c-3.5,4.5-8.6,7.9-12.3,12.6c3,0,5.8,0.3,8.6,0.7
			C267.5,344.9,270.5,339,275.1,334.6z"/>
		<path opacity="0.3" fill="#006394" enable-background="new    " d="M286.4,336.7c-0.7-1-2.7-2.2-6.3-2.4
			c-4.7,5.3-7.8,11.6-12.7,16.5c3.3,0.7,6.5,1.7,9.5,3c0.5-0.9,1-1.7,1.6-2.5c0.9-1.3,1.9-2.6,2.9-3.9c1.9-2.5,3.9-5.1,4.7-7
			C286.9,338.8,286.9,337.6,286.4,336.7z"/>
		<path fill="#F58020" d="M272.4,439.9c-0.5,1.7-0.9,3.4-1.3,5c-1.8,7.5-3.6,15.1-7.5,21.7l0,0c-7.8,4-10.7-8.2-9.7-13.2
			c1-5,3.1-9.1,3.7-13.9c0.9-8.4-1.4-19.1,4-26c5.4-6.5,12.1-0.8,13.1,5.6C275.8,425.9,274.2,433.1,272.4,439.9z"/>
		<path fill="#F58020" d="M234.9,480.8c-0.6,1.8-1.3,3.8-2.2,5.8l0,0c-0.9,2.2-11.9,6-18.8-4.4c-6.1-9.4,5.4-15.9,12.7-30.4
			c-1.7,3.7-3.5,7.1-4.9,10C218.3,468.6,226.1,478.7,234.9,480.8z"/>
		<path fill="#008C95" d="M226.7,451.5c0.7-1.6,1.5-3.3,2.1-5C228.2,448.2,227.5,449.9,226.7,451.5z"/>
		<path fill="#FDB525" d="M291.8,414.1c-1.9-8.4-15.5-23.2-36.4-21.4c-40.6,3.4-56.6,32.3-62.1,44.8c-0.2,0.4-0.3,0.8-0.5,1.1
			c-1,2.3-1.6,3.8-1.9,4.4c-3,5.6-6,10.9-9.4,16.1c-4.6,6.5-8.3,12.5-11.7,19.4c-0.6,5.6,3.6,14.3,7.7,17.2c2,1.5,10.9,1.6,14.9-0.6
			c3.6,4.6,9.2,8.6,15.4,8.4c15.7-0.5,21.6-8.9,25-16.8l0,0c-0.9,2.2-11.9,6-18.8-4.4c-6.1-9.4,5.4-15.9,12.7-30.4
			c-1.7,3.7-3.5,7.1-4.9,10c-3.4,6.8,4.5,16.9,13.3,19c8.8,2.5,20.9-3.8,26.2-10.7l0.4-0.4c0.8-1,1.4-2.1,2.1-3.2
			c-7.8,4-10.7-8.2-9.7-13.2c1-5,3.1-9.1,3.7-13.9c0.9-8.4-1.4-19.1,4-26c5.4-6.5,12.1-0.8,13.1,5.6c1.2,6.9-0.5,14.2-2.2,20.9
			c2,0.1,3.9,0,5.6-0.4C289.4,437,294.2,424.7,291.8,414.1z M226.7,451.5c0.7-1.6,1.5-3.3,2.1-5
			C228.2,448.2,227.5,449.9,226.7,451.5z"/>
		<path opacity="0.4" fill="#F58020" enable-background="new    " d="M192.8,489.6c-0.9-0.9-2.5-1-3.8-2.1c0.4,2.7,1.5,5.3,2.9,7.7
			c0.2-0.1,0.3-0.2,0.5-0.2c3.6,4.6,9.2,8.6,15.4,8.4c15.7-0.5,21.6-8.9,25-16.8l0,0c-0.9,2.2-11.9,6-18.8-4.4
			c-0.3-0.4-0.5-0.8-0.7-1.3C208.5,486.9,200.3,491.3,192.8,489.6z"/>
		<path opacity="0.4" fill="#F58020" enable-background="new    " d="M253.9,458.4c-9.4,7.6-23.2,14.5-33,5.8
			c-0.9,6.6,6.1,14.8,14,16.7c8.8,2.5,20.9-3.8,26.2-10.7l0.4-0.4c0.8-1,1.4-2.1,2.1-3.2C257.9,469.5,254.8,463.6,253.9,458.4z"/>
		<path opacity="0.4" fill="#F58020" enable-background="new    " d="M255.4,392.6c-40.6,3.4-56.6,32.3-62.1,44.8
			c-0.2,0.4-0.3,0.8-0.5,1.1c-1,2.3-1.6,3.8-1.9,4.4c-3,5.6-6,10.9-9.4,16.1c-4.6,6.5-8.3,12.5-11.7,19.4c0,0,0,0,0,0
			c-0.6,5.6,3.6,14.3,7.7,17.2c2,1.5,10.3,1.6,14.4-0.4c-1.5-2.4-2.6-5-2.9-7.7c-0.2-1.2-0.2-2.4,0-3.7c-4.1-1.4-9-1.9-13.5-3.1
			c12-14.5,17.4-32,28.6-48.6c14.9-23.9,46.8-41,73.9-34.5C272,394.2,264.4,391.9,255.4,392.6z"/>
		<g>
			<g>
				<path fill="#006394" d="M457.4,550.8c-1.8-10.9-3.5-15.9-8.1-24.8c1-0.2,1.5-0.2,2.4-0.4c4.4,8.7,6.2,13.9,7.9,23.9L457.4,550.8
					z"/>
			</g>
		</g>
		<path fill="#4EC1E0" d="M453.4,262.3c8.9-3.2,16.8,0.2,20.4,8.3c1.1,2.4,2.5,6.6-2,7.2c-4.1,0.6-8.3,0.6-10.8-3.8
			c-2.3-4-1.5-6.8,2.2-7.2c0-0.1,0-0.1-0.1-0.2c-1.6-0.8-4.1-2.2-6.4-1c-6.5,3.3-3.9,7.1-1.4,11.7c2.2,4.1,3.1,6.2,4.7,10.5
			c1-3.1,3.8-4.8,7.4-5.3c7.8-1.1,16.5,3.8,18.3,11.6c2,8.6-5.3,17.2-15.9,19.2c-11.1,2.2-18.4-5.4-24.2-20.7
			C442,282.6,438.2,267.8,453.4,262.3z M469,311.4c1.1-0.2,2.1-0.7,2.6-2c0.7-1.6,0.7-4.3-0.6-10.7c-1.3-6.4-2.1-8-2.8-9.3
			c-0.9-1.8-2.1-2.5-3.6-2.3c-1.3,0.2-2.4,1-2.8,2.5c-0.5,2.1,0.6,5.6,1.6,10.2c1.5,7,1.6,9.6,2.5,10.7
			C466.7,311.5,468,311.6,469,311.4z"/>
		
			<ellipse transform="matrix(-0.4122 -0.9111 0.9111 -0.4122 133.8468 696.7194)" fill="#FFFFFF" cx="291.7" cy="305.2" rx="6.6" ry="11"/>
		<path fill="#FFFFFF" d="M601.3,385.6c0.4,3.2-3.6,6.4-8.9,7.1c-5.3,0.7-10-1.3-10.4-4.6c-0.4-3.2,3.6-6.4,8.9-7.1
			C596.2,380.4,600.8,382.4,601.3,385.6z"/>
		
			<ellipse transform="matrix(-0.4122 -0.9111 0.9111 -0.4122 145.4689 724.0874)" fill="#FFFFFF" cx="306.3" cy="315.1" rx="3.7" ry="6.2"/>
		
			<ellipse transform="matrix(-0.4122 -0.9111 0.9111 -0.4122 169.4298 985.7601)" fill="#FFFFFF" cx="402.7" cy="438.2" rx="3.7" ry="6.2"/>
		<path fill="#FFFFFF" d="M516.5,356.5c-1.3,23.3-8.4,45.9-19.3,66.2c8.6-11.3,15.5-25.9,20.6-43.7c1.8-6.4,3.4-13.2,4.6-20.1
			c0.1-0.5,0.2-1.1,0.3-1.6C520.6,357,518.5,356.8,516.5,356.5z"/>
		<path fill="#FFFFFF" d="M326.1,297.6c4.3,5,6.8,11,10.6,17c-1.2-4.1-2.9-8.1-5-12c-9.2-17.2-25.2-28.5-39.8-28.1
			c-3.8,0.1-7.4,1-10.6,2.8c-0.2,0.1-0.3,0.2-0.5,0.3C296.4,273.1,315.6,285.9,326.1,297.6z"/>
		<g>
			<path fill="#FFFFFF" d="M204.8,396c12-7.4,23.7-13.6,37.9-15.8c7.1-1.1,13.9-0.6,20.9,0.2c4.2,0.5,7.9,1.1,11.9,2.8
				c3,1.3,5.8,3.1,9.1,3.7c0.4,0.1,1-0.3,0.8-0.8c-3.1-6.7-11.5-8.9-17.7-11.7c-7.4-3.3-15.5-3.2-23.5-2.1
				c-14.6,2-31.9,10.3-39.5,23.5C204.6,395.9,204.8,396,204.8,396L204.8,396z"/>
		</g>
		<g>
			<path fill="#FFFFFF" d="M332.6,135.8c23.5-15.3,51.9-23.4,79.4-27.7c4.1-0.7,4.2-7-0.2-6.7c-13.9,1-28.1,6.5-41.1,11.1
				c-6,2.2-12,4.6-17.7,7.4c-7.4,3.7-16,8.6-20.6,15.7C332.3,135.8,332.5,135.9,332.6,135.8L332.6,135.8z"/>
		</g>
		<g>
			<path fill="#FFFFFF" d="M404,514.9c5.3,3.5,11.9,1.3,16.2-2.7c1.9-1.8,3.7-4.2,3.9-6.9c0.3-4.2,1.6-6.7-1.1-10.4
				c-0.3-0.4-1.2-0.3-1.1,0.3c0.2,2.2,0.7,4-0.1,6.2c-0.9,2.7-2.6,4.7-4.4,6.8c-3.2,3.8-8.1,8.4-13.4,6.4
				C403.9,514.5,403.8,514.8,404,514.9L404,514.9z"/>
		</g>
		<g>
			<path fill="#FFFFFF" d="M422.5,495.2c0.1,0,0.1-0.2,0-0.1C422.4,495.1,422.4,495.2,422.5,495.2L422.5,495.2z"/>
		</g>
		<g>
			<path fill="#FFFFFF" d="M225.1,467.2c3.8,2.4,8.2,2.3,12.4,1.3c3.3-0.8,9.2-2.8,10.5-6.3c0.3-0.7-0.4-1.5-1-1.7
				c-2.9-0.9-6.1,1.6-8.6,2.7c-3.9,1.7-8.6,4.3-12.8,2.8C224.8,465.8,224.5,466.8,225.1,467.2L225.1,467.2z"/>
		</g>
		<g>
			<path fill="#FFFFFF" d="M190.8,487.3c3.7,4.1,14,3.3,17.2-1.1c0.5-0.7-0.1-1.7-0.8-1.9c-2.3-0.6-4.4,0.4-6.6,1.2
				c-3.3,1.2-6.4,1.1-9.7,1.6C190.8,487.2,190.8,487.3,190.8,487.3L190.8,487.3z"/>
		</g>
		<g>
			<path fill="#FFFFFF" d="M173.8,481.7c1.8,1,3.7,1.4,5.8,1.6c1.5,0.1,5.1,0.2,5.3-2c0.1-0.8-0.2-1.4-1-1.7c-1.2-0.4-3,0.7-4.2,1
				c-1.7,0.4-3.8,0.6-5.5,0.1C173.6,480.6,173.3,481.4,173.8,481.7L173.8,481.7z"/>
		</g>
		<g>
			<path fill="#FFFFFF" d="M628.5,111.8c0,0,24-2.7,37-14.8C655.4,109.8,634.7,117.1,628.5,111.8z"/>
		</g>
		<g>
			<path fill="#FFFFFF" d="M262.3,400.3c0,0-36.9,7.9-52.3,28C220.7,407.7,250.5,393.4,262.3,400.3z"/>
		</g>
	</g>
	<g>
		
			<path fill="none" stroke="#006394" stroke-width="2.5877" stroke-linecap="round" stroke-linejoin="round" stroke-miterlimit="10" d="
			M205.4,436.5c2.9,5.1-1.1,16.3-3.3,21.1c-4.8,10.5-11.2,16.4-14,27.6c0.2,6.3,9,18.6,19.7,18.2c19.6-0.6,24-13.5,27.2-22.6"/>
		
			<path fill="none" stroke="#006394" stroke-width="2.5877" stroke-linecap="round" stroke-linejoin="round" stroke-miterlimit="10" d="
			M231.5,421.8c1.7,3.1,0.7,10.7,0.4,14.3c-1.7,9.2-7,18.8-10.3,25.7c-3.4,6.8,4.5,16.9,13.3,19c8.8,2.5,20.9-3.8,26.2-10.7l0.4-0.4
			c5.3-7.3,7.4-16.1,9.6-24.9c2.1-8,5-17.2,3.6-25.9c-1-6.3-7.7-12.1-13.1-5.6c-5.3,6.9-3,17.6-4,26c-0.6,4.8-2.7,8.9-3.7,13.9
			c-1,5,1.9,17.3,9.7,13.2"/>
		
			<path fill="none" stroke="#006394" stroke-width="2.5877" stroke-linecap="round" stroke-linejoin="round" stroke-miterlimit="10" d="
			M192.4,495c-4,2.3-12.9,2.2-14.9,0.6c-4.1-2.9-8.3-11.6-7.7-17.2c3.4-6.8,7.1-12.9,11.7-19.4c3.4-5.3,6.4-10.5,9.4-16.1
			c1.9-3.2,14.6-46.1,64.5-50.2c20.9-1.7,34.5,13,36.4,21.4c2.7,12.2-4,26.7-19.4,25.8"/>
		
			<path fill="none" stroke="#006394" stroke-width="2.5877" stroke-linecap="round" stroke-linejoin="round" stroke-miterlimit="10" d="
			M229,446.1c-6.6,18.7-22,25.6-15.1,36.1c6.9,10.5,18,6.6,18.8,4.5"/>
		
			<path fill="none" stroke="#006394" stroke-width="2.5877" stroke-linecap="round" stroke-linejoin="round" stroke-miterlimit="10" d="
			M278.1,439.5c0,0,1.4,21.5,22.5,22.9c7.9,0.5,28.7-8.3,20.9-24c-2.9-5.8-13.7-1-19.7-8.6c-6.1-7.7-9.9-15.6-9.9-15.6"/>
		
			<path fill="none" stroke="#006394" stroke-width="2.5877" stroke-linecap="round" stroke-linejoin="round" stroke-miterlimit="10" d="
			M192.8,438.5c-13.4-15.1-9.8-66.9,55.7-71.4c58.4-4,63.8,48,47.8,54.8"/>
		
			<path fill="none" stroke="#006394" stroke-width="2.5877" stroke-linecap="round" stroke-linejoin="round" stroke-miterlimit="10" d="
			M186.6,416.4c0.2-24.7,15.4-58.9,61.6-62.5c40.1-3.1,55.2,26.6,55.6,47.1"/>
		
			<path fill="none" stroke="#006394" stroke-width="2.5877" stroke-linecap="round" stroke-linejoin="round" stroke-miterlimit="10" d="
			M282.1,353.8c4.9,2.3,10.4,3.6,16.3,3.4c12.3-0.4,26.3-9.5,29-16.5c-0.1-34.7-31.2-57.7-41.6-52.5c-13.6,6.7-24.4,18.7-23.9,34.7
			c0.1,3.7,0.8,7.2,1.9,10.5"/>
		
			<path fill="none" stroke="#006394" stroke-width="2.5877" stroke-linecap="round" stroke-linejoin="round" stroke-miterlimit="10" d="
			M263.2,311.9c-1.9-16.7,3.8-31.7,16.1-38.3c17.9-9.6,43.1,2.5,56.2,27.1c13.1,24.5,9.3,52.2-8.6,61.8c-11.8,6.3-26.7,3.2-39.3-6.6
			"/>
		
			<path fill="none" stroke="#006394" stroke-width="2.5877" stroke-linecap="round" stroke-linejoin="round" stroke-miterlimit="10" d="
			M239.7,355c0,0,15.2-24.2,38.6-24.9c9.2-0.3,15.1,4.5,11.8,12.2c-2.5,5.6-10.8,13.3-10.5,17.3"/>
		
			<path fill="none" stroke="#006394" stroke-width="2.5877" stroke-linecap="round" stroke-linejoin="round" stroke-miterlimit="10" d="
			M401.7,222.1c-3-21.6-18.4-52.1-18.4-52.1c-12-2.3-15,5.3-15,5.3s11.7,27.6,18.4,52.1C393.5,229.2,398,227.1,401.7,222.1z"/>
		
			<path fill="none" stroke="#006394" stroke-width="2.5877" stroke-linecap="round" stroke-linejoin="round" stroke-miterlimit="10" d="
			M396.3,226.9c-3.5-21.5-18.2-50.4-18.2-50.4c-4-0.8-7-0.4-9.2,0.4"/>
		
			<path fill="none" stroke="#006394" stroke-width="2.5877" stroke-linecap="round" stroke-linejoin="round" stroke-miterlimit="10" d="
			M499,200.9c-2.6-19-16.2-45.9-16.2-45.9c-10.5-2-13.2,4.7-13.2,4.7s10.3,24.2,16.2,45.9C491.7,207.1,495.7,205.3,499,200.9z"/>
		
			<path fill="none" stroke="#006394" stroke-width="2.5877" stroke-linecap="round" stroke-linejoin="round" stroke-miterlimit="10" d="
			M494.2,205.1c-3.1-18.9-16-44.4-16-44.4c-3.5-0.7-6.2-0.4-8.1,0.3"/>
		
			<path fill="none" stroke="#006394" stroke-width="2.5877" stroke-linecap="round" stroke-linejoin="round" stroke-miterlimit="10" d="
			M286.8,158.6c14.4-12.8,29-7,29.2,1.6c0.4,16.8,7.7,63.6,22,89c16.3,29,34.2,37.8,46.4,40.1c2.4,0.4,4.9,0.6,7.6,0.6c0,0,0,0,0,0
			c8.3-0.2,17.5-3.1,27.7-7c0,0,9.8,10,10.6,34.7"/>
		
			<path fill="none" stroke="#006394" stroke-width="2.5877" stroke-linecap="round" stroke-linejoin="round" stroke-miterlimit="10" d="
			M547.7,158.7c4.2,10.7,7.6,28.9,8.6,45.2c1.5,24.7-2.5,41.4-12.2,51.2c-7,7.1-14.7,10.7-23.7,10.9c-3,0.1-5.1-0.1-7.9-0.5"/>
		
			<line fill="none" stroke="#006394" stroke-width="2.5877" stroke-linecap="round" stroke-linejoin="round" stroke-miterlimit="10" x1="493.4" y1="134.9" x2="506.4" y2="117.2"/>
		
			<path fill="none" stroke="#006394" stroke-width="2.5877" stroke-linecap="round" stroke-linejoin="round" stroke-miterlimit="10" d="
			M518.7,302.6c16.1,2.1,27.9,7.9,35.2,17.4"/>
		
			<path fill="none" stroke="#006394" stroke-width="2.5877" stroke-linecap="round" stroke-linejoin="round" stroke-miterlimit="10" d="
			M341.9,399.8c-1-3.6-1.2-7-0.5-10.6c5.2-27.5,38.5-48.7,65.4-61.6c7.5-3.6,15.4-7,23.3-9.9"/>
		
			<path fill="none" stroke="#006394" stroke-width="2.5877" stroke-linecap="round" stroke-linejoin="round" stroke-miterlimit="10" d="
			M378.3,409.3c-8.5-0.5-21.7-8.7-20.1-16.9c6.7-35.1,95.5-72.1,141.7-73.5c41.7-1.3,45.7,17.5,43.1,24"/>
		
			<path fill="none" stroke="#006394" stroke-width="2.5877" stroke-linecap="round" stroke-linejoin="round" stroke-miterlimit="10" d="
			M389.8,422.3c-9.4-9.3-16-18.3-17.8-24.1c-1.2-3.7,5.5-12.5,9.7-16.9c16.4-17.1,80-44.9,121.7-45.1c20.8-0.1,25.8,3.5,25.5,7.1
			c-0.3,3.7-9.1,111-83.3,109.8c-4.5,0.2-9.4-0.7-14.4-2.5"/>
		
			<path fill="none" stroke="#006394" stroke-width="2.5877" stroke-linecap="round" stroke-linejoin="round" stroke-miterlimit="10" d="
			M526.7,359.7c7.7-5.7,13.7-11.7,17-18c22.7-39.5,37.1-105.8-0.2-193.5l0,0c-10.5-25.8-19.2-41.2-31.3-47.5
			c-11.8-6.2-33.8-10.6-58.5-8.7c-112.2,9-145.4,44.3-159.6,58.8c-41.3,42-41.5,102.4-29.5,142.2"/>
		
			<path fill="none" stroke="#006394" stroke-width="2.5877" stroke-linecap="round" stroke-linejoin="round" stroke-miterlimit="10" d="
			M298.2,362.3c0,0,30.5,45.4,80.2,47"/>
		
			<path fill="none" stroke="#006394" stroke-width="2.5877" stroke-linecap="round" stroke-linejoin="round" stroke-miterlimit="10" d="
			M421.4,131.8l7-20.5c0,0-4.4-12.6-14-14.4"/>
		
			<path fill="none" stroke="#F58020" stroke-width="2.5877" stroke-linecap="round" stroke-linejoin="round" stroke-miterlimit="10" d="
			M459.8,249.9c-4.7-39.8-21.5-94.3-38.4-118.1"/>
		
			<path fill="none" stroke="#006394" stroke-width="2.5877" stroke-linecap="round" stroke-linejoin="round" stroke-miterlimit="10" d="
			M480.1,246c13.9,10.8,18.5,58.4,17.6,73l-10.8,18.6c5.6,33,12.7,115.1-41.2,115.5"/>
		
			<path fill="none" stroke="#006394" stroke-width="2.5877" stroke-linecap="round" stroke-linejoin="round" stroke-miterlimit="10" d="
			M512.5,265.6c3.3,11.1,5.3,25.9,6.3,37"/>
		
			<path fill="none" stroke="#006394" stroke-width="2.5877" stroke-linecap="round" stroke-linejoin="round" stroke-miterlimit="10" d="
			M562,293.7c19.4-0.6,34.1-16.3,33.5-35.7c-0.5-17.6-13.9-31.7-30.8-33.8"/>
		
			<path fill="none" stroke="#006394" stroke-width="2.5877" stroke-linecap="round" stroke-linejoin="round" stroke-miterlimit="10" d="
			M653.1,97.2c-7.3,3.8-18.1-1.1-21.6-6.3c-8.4-12.4,4.3-26.2,4.3-26.2"/>
		
			<path fill="none" stroke="#006394" stroke-width="2.5877" stroke-linecap="round" stroke-linejoin="round" stroke-miterlimit="10" d="
			M653.1,97.2c15.3-8.4,15.1-18.5,15.1-18.5"/>
		
			<path fill="none" stroke="#006394" stroke-width="2.5877" stroke-linecap="round" stroke-linejoin="round" stroke-miterlimit="10" d="
			M556.1,97.6c-15.8-4.9-29.2-26-22.5-38.6c3.9-7.5,12.8-17.3,18.3-19.6c8.3-3.5,31.2,3.2,31.2,3.2s13.9,20,0.5,33.5
			c-10.6,10.6-17,6.1-33.4-1.9"/>
		
			<path fill="none" stroke="#006394" stroke-width="2.5877" stroke-linecap="round" stroke-linejoin="round" stroke-miterlimit="10" d="
			M532,63.5c0,0,2.9-19.2,33.9-4.9c9.3,4.3,22.2-9.9,17.1-16.1"/>
		
			<path fill="none" stroke="#006394" stroke-width="2.5877" stroke-linecap="round" stroke-linejoin="round" stroke-miterlimit="10" d="
			M560.4,38.4c0.2-2.2,0.7-5,1.3-6.5c4-9.1,14.6-17.7,34.4-23.3c14.1-3.9,36.3,1.7,45,13.7"/>
		
			<path fill="none" stroke="#006394" stroke-width="2.5877" stroke-linecap="round" stroke-linejoin="round" stroke-miterlimit="10" d="
			M597.5,67.4c-12.7-1.4-5.7-22.7-3.8-25.5c6.2-9.1,28.3-29.4,44.6-19.2"/>
		
			<path fill="none" stroke="#006394" stroke-width="2.5877" stroke-linecap="round" stroke-linejoin="round" stroke-miterlimit="10" d="
			M671.6,53.4c0.6-7.2-4.7-11.4-9.3-11.2c-12.6,0.6-21.8,5.9-29.2,12.4c-4.2,3.7-13.3,18.2-4.7,28.3"/>
		
			<path fill="none" stroke="#006394" stroke-width="2.5877" stroke-linecap="round" stroke-linejoin="round" stroke-miterlimit="10" d="
			M669.2,34c-10.2-15.5-31-11.3-31-11.3c-28.4,10.7-37.9,21.4-37.9,21.4"/>
		
			<path fill="none" stroke="#006394" stroke-width="2.5877" stroke-linecap="round" stroke-linejoin="round" stroke-miterlimit="10" d="
			M669.2,34c0,0,6.3,9.9,2.4,19.4"/>
		
			<path fill="none" stroke="#006394" stroke-width="2.5877" stroke-linecap="round" stroke-linejoin="round" stroke-miterlimit="10" d="
			M600.4,44.1c-15.8,42.8,28,38.8,28,38.8"/>
		
			<path fill="none" stroke="#006394" stroke-width="2.5877" stroke-linecap="round" stroke-linejoin="round" stroke-miterlimit="10" d="
			M635.8,64.7c0,0,14.7-14.2,27.4-12.5c12.8,1.7,16.1,6.3,16.6,9c0.3,1.7,3.7,18.9-4.7,31.3"/>
		
			<path fill="none" stroke="#006394" stroke-width="2.5877" stroke-linecap="round" stroke-linejoin="round" stroke-miterlimit="10" d="
			M651.2,97.9c0,0-5.5-17.8,9-25.4c14.5-7.5,18.3-5.8,20.3,4"/>
		
			<path fill="none" stroke="#006394" stroke-width="2.5877" stroke-linecap="round" stroke-linejoin="round" stroke-miterlimit="10" d="
			M678.3,131.6c-15.4,12.7-37.2,20.6-62.6,21.4c-25.4,0.8-47.6-5.8-63.7-17.6"/>
		
			<path fill="none" stroke="#006394" stroke-width="2.5877" stroke-linecap="round" stroke-linejoin="round" stroke-miterlimit="10" d="
			M678.4,87.4c2.1,3,3.2,6.2,3.3,9.6c0.5,18-29.3,33.5-66.7,34.6c-37.4,1.1-68.1-12.5-68.7-30.5c-0.1-2.6,0.5-5.1,1.6-7.5"/>
		
			<path fill="none" stroke="#006394" stroke-width="2.5877" stroke-linecap="round" stroke-linejoin="round" stroke-miterlimit="10" d="
			M546.4,101.1c1.6,36.6,22.2,101.7,66.9,106.9c35.6,4.2,65.7-35.1,68.5-111"/>
		
			<path fill="none" stroke="#006394" stroke-width="2.5877" stroke-linecap="round" stroke-linejoin="round" stroke-miterlimit="10" d="
			M586.3,196c0,0-1.2,17.6-14.6,29.8"/>
		
			<path fill="none" stroke="#006394" stroke-width="2.5877" stroke-linecap="round" stroke-linejoin="round" stroke-miterlimit="10" d="
			M617.4,208.4c0,0-6.9,27.8-23.5,40.2"/>
		
			<path fill="none" stroke="#006394" stroke-width="2.5877" stroke-linecap="round" stroke-linejoin="round" stroke-miterlimit="10" d="
			M588.8,66.7c0,0,2,3.5,9.4,1.5"/>
		
			<path fill="none" stroke="#006394" stroke-width="2.5877" stroke-linecap="round" stroke-linejoin="round" stroke-miterlimit="10" d="
			M665.4,86.5c0,0,9.1,0.5,10.4,8.3l0,0c-3.4,7.6-8.2,12.6-17.1,16.8c-23.4,11.2-69.3,21-101.6-10.1c0,0-6.3-17.1,4.2-21.8"/>
		
			<path fill="none" stroke="#006394" stroke-width="2.5877" stroke-linecap="round" stroke-linejoin="round" stroke-miterlimit="10" d="
			M431.2,450.6c-4.1,7.8-12.2,13.2-21.6,13.5c-13.9,0.4-25.6-10.5-26-24.5c-0.2-6.6,2.6-13.8,6.2-17.3
			C400.5,411.8,435.3,442.8,431.2,450.6z"/>
		
			<path fill="none" stroke="#006394" stroke-width="2.5877" stroke-linecap="round" stroke-linejoin="round" stroke-miterlimit="10" d="
			M417.2,462.5c-1.6,21,0,35.6,0,35.6c-0.6,11-13.2,15.8-17.9,8.5c0,0-3.7-27.4-3.7-46.4"/>
		
			<path fill="none" stroke="#006394" stroke-width="2.5877" stroke-linecap="round" stroke-linejoin="round" stroke-miterlimit="10" d="
			M460.3,586.6c14.2-14.3,17.1-31.7,10.6-51.3c-3.5-10.7-15.3-28-34.6-32.2c0,0-11.1-16.9-19.5-18"/>
		
			<path fill="none" stroke="#006394" stroke-width="2.5877" stroke-linecap="round" stroke-linejoin="round" stroke-miterlimit="10" d="
			M397.7,493.2c-6,8.4-7.2,23.3-3.6,30.6c5.3,10.8,7.8,13.7,15.4,24c4.5,11.5,10.7,51.7,23.5,50.7"/>
		
			<path fill="none" stroke="#006394" stroke-width="2.5877" stroke-linecap="round" stroke-linejoin="round" stroke-miterlimit="10" d="
			M428,580.1l5.1,18.4c7.4,13.4,22.8,7.1,27.3-11.9l-25.4-10.5C434.9,576.1,430.7,579.2,428,580.1z"/>
		
			<path fill="none" stroke="#006394" stroke-width="2.5877" stroke-linecap="round" stroke-linejoin="round" stroke-miterlimit="10" d="
			M465.5,533c4.1,10.5,3.1,21-2.1,23.5c-5.2,2.4-12.7-4.1-16.8-14.7c-4.1-10.5-3.1-21,2.1-23.5C454,515.9,461.5,522.5,465.5,533z"/>
		
			<path fill="none" stroke="#006394" stroke-width="2.5877" stroke-linecap="round" stroke-linejoin="round" stroke-miterlimit="10" d="
			M444.5,525.3c0.7-1.6,1.6-2.8,2.9-3.4c4.5-2.1,10.9,3.6,14.4,12.6c3.5,9,2.7,18.1-1.8,20.1c-1.6,0.7-3.3,0.5-5.2-0.4"/>
		
			<path fill="none" stroke="#006394" stroke-width="2.5877" stroke-linecap="round" stroke-linejoin="round" stroke-miterlimit="10" d="
			M403.6,539.7c12.9,15.5,29.3-0.8,32.8-36.6"/>
		
			<path fill="none" stroke="#006394" stroke-width="2.5877" stroke-linecap="round" stroke-linejoin="round" stroke-miterlimit="10" d="
			M416.1,545.3c6.5,20.6,14.9,33.3,14.9,33.3s5.4,22.6,12.1,27.1"/>
		<g>
			
				<path fill="none" stroke="#006394" stroke-width="2.5877" stroke-linecap="round" stroke-linejoin="round" stroke-miterlimit="10" d="
				M623.5,592.7c0,0-46.7,9.7-87.3-23.7"/>
			
				<path fill="none" stroke="#006394" stroke-width="2.5877" stroke-linecap="round" stroke-linejoin="round" stroke-miterlimit="10" d="
				M616.1,593.7c0,0-8.6-43.2-20.5-58.6c0,0,6.7-22,4.3-35.7c-2.3-13.6-7.3-35.2-6.7-46.7"/>
			
				<path fill="none" stroke="#006394" stroke-width="2.5877" stroke-linecap="round" stroke-linejoin="round" stroke-miterlimit="10" d="
				M537.8,428.3c-4,18.7,62.3,38.3,70.6,13.3"/>
			
				<path fill="none" stroke="#006394" stroke-width="2.5877" stroke-linecap="round" stroke-linejoin="round" stroke-miterlimit="10" d="
				M552.3,385.9c0,0,7.5-8.3,18.5-1.5c16,10,8.4,61.2-16.6,62"/>
			
				<path fill="none" stroke="#006394" stroke-width="2.5877" stroke-linecap="round" stroke-linejoin="round" stroke-miterlimit="10" d="
				M623.5,592.7c0,0-13.6,11.9-42.9,7.5c-21.9-3.3-46-20.1-58.6-35.1"/>
			
				<path fill="none" stroke="#006394" stroke-width="2.5877" stroke-linecap="round" stroke-linejoin="round" stroke-miterlimit="10" d="
				M616,556.4c6-3.7,12.1-20.8,10.4-42.6c-1.6-21-17-41.8-17.8-68.6c-0.6-20.9,2.1-48.1-5.2-63.5c-4.7-9.9-27.5-14.3-41.9-5
				c-11.1,7.1-18.6,23.5-24.1,53.4c-3.1,17.2-19,38.1-29,48.9c-3.9,4.2-7.7,11.4-10,17.7c-3.4,9.6-3.8,21.1-1.2,32.5
				c5.3,23.3,21.9,39.9,39.3,39.3c1.7-0.1,35.9-0.7,49.5-33.6c5.9,0.6,22-0.4,22-0.4s18.2,43.8,15.6,58.1"/>
			
				<ellipse transform="matrix(-0.2221 -0.975 0.975 -0.2221 140.6196 1155.2906)" fill="none" stroke="#006394" stroke-width="2.5877" stroke-linecap="round" stroke-linejoin="round" stroke-miterlimit="10" cx="531.2" cy="521.6" rx="34.7" ry="22"/>
			
				<path fill="none" stroke="#006394" stroke-width="2.5877" stroke-linecap="round" stroke-linejoin="round" stroke-miterlimit="10" d="
				M543.3,553.5c-9.5,2.2-20.5-10.4-24.5-28c-4-17.7,0.4-33.7,10-35.9c3-0.7,6.1,0.1,9.1,2"/>
			<g>
				
					<path fill="none" stroke="#006394" stroke-width="2.5877" stroke-linecap="round" stroke-linejoin="round" stroke-miterlimit="10" d="
					M542.3,542.6l-5.5,0.5c-6.4-13.1-9.7-27.6-9.7-42.2l5.2-1.2C532,514.7,535.5,529.5,542.3,542.6z"/>
			</g>
		</g>
		
			<path fill="none" stroke="#006394" stroke-width="2.5877" stroke-linecap="round" stroke-linejoin="round" stroke-miterlimit="10" d="
			M521.2,417.4c-5.8,8.5-15.4,14.3-26.4,14.8"/>
		
			<path fill="none" stroke="#006394" stroke-width="2.5877" stroke-linecap="round" stroke-linejoin="round" stroke-miterlimit="10" d="
			M521.9,380.2c2.6,4.1,4.3,8.8,4.9,13.9"/>
		
			<path fill="none" stroke="#006394" stroke-width="2.5877" stroke-linecap="round" stroke-linejoin="round" stroke-miterlimit="10" d="
			M542.3,408.8c-3.4,0.2-20.1,8.3-22.8,9.3c-2.7,1-4.6-15.8,3.9-22.7c0,0,26.7-10.8,34.9-16.4"/>
		
			<path fill="none" stroke="#006394" stroke-width="2.5877" stroke-linecap="round" stroke-linejoin="round" stroke-miterlimit="10" d="
			M338.9,149.4c-15.1,40.3,14.4,116.6,48.6,123.1c16.4,3.1,53.8-21.3,88.3-26c34.5-4.7,42.7,10.3,56.1-3.3
			c13.4-13.6,6.1-62.2-0.2-78.2c-6.2-16.1-17-43.6-27.5-49.1c-10.5-5.5-41.9-10.4-84.1-3.3C377.8,119.7,343.2,137.9,338.9,149.4z"/>
		
			<path fill="none" stroke="#006394" stroke-width="2.5877" stroke-linecap="round" stroke-linejoin="round" stroke-miterlimit="10" d="
			M512.6,248.3c24.2-22.5-9.4-108.5-19.2-113.4c-9.8-4.8-32.3-9.5-71.9-3.1c-39.6,6.4-82.3,32.5-86.4,42.7"/>
		
			<path fill="none" stroke="#006394" stroke-width="3.8664" stroke-linecap="round" stroke-linejoin="round" stroke-miterlimit="10" d="
			M444.4,225.9c0,0,12.5,4.8,22.5-5.6"/>
	</g>
</g>
<g>
	<path fill="#FFFFFF" d="M356.4,506.7c1.2,4.4-0.3,8.9-6.9,10.7c-6.9,1.9-10.6-2.1-11.5-7.4C344.2,515.4,354.4,513.4,356.4,506.7z"
		/>
	<path fill="#FFFFFF" d="M350.4,472.9c0.7,3.1-0.1,6.3-3.7,6.5c-3.6,0.3-5.4-1.8-5.9-4.5C343.8,477.1,348.8,476.3,350.4,472.9z"/>
	<path fill="#CFEDFC" d="M341.4,469.5c3.8-5.2,8-1,9,3.4c-1.6,3.3-6.6,4.2-9.6,2C340.5,473.2,340.7,471.2,341.4,469.5L341.4,469.5z"
		/>
	<path fill="#CFEDFC" d="M339.1,501c4.2-10.2,15.2-2.5,17.4,5.6c-2,6.8-12.2,8.7-18.4,3.3c-0.5-2.9-0.2-6.1,0.8-9L339.1,501z"/>
	<path fill="#FFFFFF" d="M344.9,587.7c0.7,2,0.5,4.2-1.2,6.1c-4.4,4.8-9.6,0.8-11.2-3.8C337,592.3,342.7,591.5,344.9,587.7z"/>
	<path fill="#CFEDFC" d="M334.3,582.9c3.5-2.7,9.1,0.5,10.7,4.8c-2.2,3.8-7.9,4.6-12.4,2.3c-0.5-1.3-0.6-2.6-0.4-3.8c0,0,0,0,0,0
		C332.6,584.7,333.3,583.6,334.3,582.9C334.2,582.9,334.2,582.9,334.3,582.9z"/>
	<path fill="#CFEDFC" d="M334.2,583c-0.9,0.7-1.6,1.7-2.1,3.2C332.3,584.9,333,583.7,334.2,583z"/>
	<path fill="#CFEDFC" d="M322.1,544.2c9.4-0.5,13.7,6,13.6,12.7c-5.2,9.1-18.3,9.8-26,2.7c-0.1-5.1,2.6-10.7,7.8-13.6l-0.1-0.3
		C318.9,544.9,320.5,544.4,322.1,544.2z"/>
	<path fill="#CFEDFC" d="M322.7,506.9c5.1,4.1,7.1,9.2,7,14.1c-3.9,14.7-26.8,17-35.3,4.9c-1.8-9.8,6.2-20.9,17.1-22.8
		C315.4,503.1,319.3,504.4,322.7,506.9z"/>
	<path fill="#FFFFFF" d="M329.7,521c-0.2,12.7-14.7,24.3-28.6,15.1c-3.9-2.8-6-6.4-6.7-10.2C302.9,537.9,325.8,535.7,329.7,521z"/>
	<path fill="#FFFFFF" d="M335.7,556.9c-0.1,7.5-5.8,15.1-15.9,13.6c-6.8-0.9-10-5.7-10.1-10.9C317.4,566.6,330.5,566,335.7,556.9z"
		/>
	<path fill="#CFEDFC" d="M190.1,261.2c1.5-4.7,1.2-10.4-1.4-14.9c0.8-0.8,1.7-1.6,2.6-2.3l0.2,0.3c7-4.7,15.2-4.1,21.6,1.8
		c7.2,6.6,8,16,5,23.5c-5.4,5.6-12.9,9-20.8,7.5c-5.6-1-9.4-4-12.6-7.8C187.2,267.4,189,264.5,190.1,261.2L190.1,261.2L190.1,261.2z
		"/>
	<path fill="#FFFFFF" d="M200,185.4c0.7,3.5-0.2,7.3-3.9,9.3c-4.7,2.7-7.8,1.1-9.2-2.1C191.2,195,197.7,191.6,200,185.4z"/>
	<path fill="#FFFFFF" d="M192,279.9c-4.5-2.3-7.3-5.8-8.8-9.8c0.5-0.3,0.9-0.5,1.4-0.9c3.3,3.7,7,6.8,12.6,7.8
		c7.8,1.6,15.4-1.9,20.8-7.5C214.2,279.2,203.8,285.8,192,279.9z"/>
	<path fill="#FFFFFF" d="M197.6,230c0.3,1.5-0.1,3.2-1.5,4.9c-4.6,6-8.2,3.5-9.5-1.1C190.7,235.3,195.3,233.9,197.6,230z"/>
	<path fill="#CFEDFC" d="M189.7,177.2l-0.1-0.2c4.3-2.2,9.3,2.9,10.4,8.4c-2.3,6.2-8.8,9.6-13,7.2C185,188.2,186,180.9,189.7,177.2z
		"/>
	<path fill="#CFEDFC" d="M186.8,225.2c4-2.4,10.1,0.4,10.8,4.9c-2.3,3.8-6.9,5.3-10.9,3.8C185.9,231.2,185.9,227.9,186.8,225.2z"/>
	<path fill="#CFEDFC" d="M188.6,246.3c2.6,4.6,2.9,10.2,1.4,14.9v0c-2.2,2.2-4.9,3.7-7.8,4.5C181.4,258.9,183.8,251.4,188.6,246.3z"
		/>
	<path fill="#FFFFFF" d="M190.1,261.3c-1,3.3-2.9,6.1-5.4,7.9c-0.8-0.9-1.6-1.9-2.3-2.8c0-0.2-0.1-0.4-0.1-0.6
		C185.2,265,187.9,263.5,190.1,261.3z"/>
	<path fill="#CFEDFC" d="M178.6,319.6c11.2-0.9,17.7,9.1,16.7,18.7c-3.2,8-15.1,13.9-23.5,11.6c-0.1-1.1-0.3-2.2-0.7-3.2
		c-1.1-2.8-3.3-5.1-6.7-5.9c-1.4-6.7,1-14.6,9.9-20C175.7,320,177.1,319.6,178.6,319.6z"/>
	<path fill="#CFEDFC" d="M184.7,269.2c-0.4,0.3-0.9,0.6-1.4,0.9c-0.4-1.2-0.8-2.4-0.9-3.7C183.1,267.3,183.8,268.3,184.7,269.2z"/>
	<path fill="#FFFFFF" d="M182.3,266.3c0.2,1.3,0.5,2.5,0.9,3.7c-3.4,1.8-7.9,1.8-12.8-1.2c-2.6-1.7-4.4-4.2-5.6-7
		c4.7,4,11.3,5.4,17.1,4C182,266,182.2,266.2,182.3,266.3z"/>
	<path fill="#CFEDFC" d="M182.2,265.7c0,0.2,0,0.4,0.1,0.6c-0.1-0.2-0.3-0.4-0.4-0.5C182,265.8,182.1,265.8,182.2,265.7z"/>
	<path fill="#CFEDFC" d="M181.9,265.8c-5.8,1.4-12.3,0-17.1-4c-2.9-7.1-1.6-16.5,3.5-21.4c0,0,0,0,0,0c4.4-2.5,10.2-2.5,14.9,0.4
		c2.3,1.5,4.1,3.4,5.4,5.5c-4.8,5.1-7.3,12.5-6.4,19.4C182.1,265.8,182,265.8,181.9,265.8z"/>
	<path fill="#FFFFFF" d="M171.8,349.8c8.3,2.3,20.3-3.6,23.5-11.6c-0.3,3.3-1.6,6.6-3.9,9.3c-6.6,7.9-14.1,8-19.6,4.4
		C171.9,351.3,171.9,350.6,171.8,349.8z"/>
	<path fill="#FFFFFF" d="M175.1,180.3c2.3,5.1,1.2,11.2-7,13.9c-4.1,1.1-7.7-0.2-10.3-2.6C164.9,194,173.4,188.6,175.1,180.3z"/>
	<path fill="#CFEDFC" d="M171.8,349.8c0.1,0.7,0.1,1.4,0,2.2c-0.4-0.2-0.7-0.5-1-0.7c0.2-0.5,0.3-1.1,0.4-1.6
		C171.4,349.7,171.6,349.8,171.8,349.8z"/>
	<path fill="#CFEDFC" d="M171.8,349.8c-0.2-0.1-0.5-0.1-0.7-0.2c0.2-1,0.1-2-0.1-3C171.5,347.6,171.8,348.7,171.8,349.8z"/>
	<path fill="#CFEDFC" d="M171.1,346.6c0.2,1,0.2,2,0.1,3c-1.3-0.4-2.6-1.1-3.7-2c-0.2-0.2-0.4-0.4-0.6-0.6c-1.2-1.9-2.1-4-2.6-6.3
		C167.8,341.5,170,343.8,171.1,346.6z"/>
	<path fill="#CFEDFC" d="M171.2,349.6c-0.1,0.5-0.2,1.1-0.4,1.6c-1.5-1.2-2.8-2.6-3.8-4.2c0.2,0.2,0.4,0.4,0.6,0.6
		C168.6,348.5,169.8,349.2,171.2,349.6z"/>
	<path fill="#CFEDFC" d="M174.3,320.6c-8.9,5.4-11.3,13.3-9.9,20c-0.1,0-0.2-0.1-0.4-0.1c-0.1,0-0.2,0-0.2-0.1
		C162.5,332.9,167.4,323.7,174.3,320.6z"/>
	<path fill="#CFEDFC" d="M164,340.6c0.1,0,0.2,0.1,0.4,0.1c0.5,2.3,1.4,4.5,2.6,6.3c-1.8-1.9-2.8-4.1-3.2-6.5
		C163.9,340.5,163.9,340.6,164,340.6z"/>
	<path fill="#CFEDFC" d="M163.8,340.5c0.4,2.4,1.4,4.6,3.2,6.5c1.1,1.6,2.3,3.1,3.8,4.2c-2,5.8-9.9,9.7-15.5,6.3
		c-8.1-4.9-4.8-14,1.9-16.6C159.2,340.1,161.4,339.9,163.8,340.5z"/>
	<path fill="#CFEDFC" d="M149.1,275.8c2.6-0.8,5.5-0.9,8.5,0c10.1,2.9,14.6,12.5,13.1,21.2c-5.2,9.9-21.2,12.1-28.9,3.9
		C133,292.1,139,278.9,149.1,275.8z"/>
	<path fill="#FFFFFF" d="M157.2,340.9c-6.7,2.6-10,11.7-1.9,16.6c5.6,3.5,13.5-0.4,15.5-6.3c0.3,0.3,0.7,0.5,1,0.7
		c-0.4,4.2-3,8.2-7.8,9.6C149.3,366.5,145.3,343.9,157.2,340.9z"/>
	<path fill="#CFEDFC" d="M125.5,192.4c15.4,0.4,29.1,13.5,28.2,27.1c-1.2,3.4-3.5,6.3-6.5,8.7c-1.7-1.6-3.7-2.8-6-3.7
		c-1-0.3-2-0.5-3-0.6c-3.3-1.3-6.1-0.1-8.1,2.4c-2.8,2.1-4.6,5.2-5,8.4c-3.9-0.5-7.4-1.9-10.2-4.4
		C101.6,218,103.3,191.2,125.5,192.4z"/>
	<path fill="#CFEDFC" d="M157.8,191.6c-5-4.5-6.5-13-1.8-16.5c6.5-7.1,15.9-1.8,19.1,5.2c0,0,0,0,0,0
		C173.4,188.6,164.9,194,157.8,191.6z"/>
	<path fill="#CFEDFC" d="M153.7,219.5c-0.2,3.7-1.6,7.5-4.3,11.1c-0.6-0.9-1.4-1.7-2.2-2.4C150.2,225.8,152.5,222.8,153.7,219.5z"/>
	<path fill="#FFFFFF" d="M141.8,300.9c7.7,8.3,23.7,6,28.9-3.9c-0.9,5.3-4.1,10.4-9.6,13.2c-24.9,12.5-33.3-32.7-12-34.4
		C139,278.9,133,292.1,141.8,300.9z"/>
	<path fill="#CFEDFC" d="M138.3,223.9c1,0.1,2,0.3,3,0.6c2.3,0.8,4.3,2.1,6,3.7c-5.5,4.5-13.3,7-20.4,6.7c0.4-3.3,1.5-6.4,3.3-8.6
		C132.4,224.6,135.2,223.6,138.3,223.9z"/>
	<path fill="#CFEDFC" d="M138.3,223.9c-3.1-0.2-5.9,0.7-8.1,2.4C132.1,223.7,134.9,222.5,138.3,223.9z"/>
	<path fill="#CFEDFC" d="M127.2,241.5c6.2,1.1,13.2-1.2,20.5-8.9c0.6-0.7,1.2-1.4,1.8-2.1c1.6,2.1,2.6,4.6,2.9,7
		c-3.2,7.5-15.1,11.6-22.1,6.8C128.9,243.5,127.9,242.6,127.2,241.5C127.2,241.6,127.2,241.5,127.2,241.5z"/>
	<path fill="#FFFFFF" d="M130.2,244.3c7,4.8,19,0.7,22.1-6.8c0.5,4.3-1.5,8.5-7,10.9c-11.1,5.1-16.7,0-18.2-6.8
		C127.9,242.6,128.9,243.5,130.2,244.3z"/>
	<path fill="#CFEDFC" d="M147.7,232.6c-7.3,7.7-14.3,10-20.5,8.9c-0.5-2.1-0.5-4.5-0.3-6.7c7.1,0.4,14.8-2.1,20.4-6.7
		c0.8,0.7,1.5,1.6,2.2,2.4C148.9,231.3,148.3,231.9,147.7,232.6z"/>
	<path fill="#CFEDFC" d="M127.2,241.5C127.2,241.5,127.2,241.6,127.2,241.5C127.2,241.6,127.1,241.5,127.2,241.5
		C127.1,241.5,127.2,241.5,127.2,241.5z"/>
	<path fill="#CFEDFC" d="M127.2,241.5C127.2,241.5,127.1,241.5,127.2,241.5c-1.7-2.1-2.3-4.5-2-6.9c0.6,0.1,1.1,0.1,1.7,0.2
		C126.6,237.1,126.7,239.4,127.2,241.5z"/>
	<path fill="#CFEDFC" d="M130.2,226.2c-1.7,2.2-2.9,5.3-3.3,8.6c-0.6,0-1.2-0.1-1.7-0.2C125.5,231.4,127.4,228.3,130.2,226.2z"/>
	<path fill="#4EC1E0" d="M192.4,324.7c-11.2-15.2-30.5-0.4-29.4,14.8c-2.4-0.2-4.9,0.2-7.1,1.2c-7.1,2.6-8.4,12.9-3.4,19.1
		c3.5,4.3,9.3,4,13.9,2c3.5-1.5,5.5-4.8,6.1-8.3c0.5,0.3,1.1,0.5,1.6,0.8c6.9,2.6,14-0.4,18.3-6.1c2.4-3.2,3.7-6.9,3.9-10.6
		c0.1-1.3,0-2.7-0.2-4C195.6,330.4,194.3,327.4,192.4,324.7z M151.8,347.7c1.4-5.1,6.7-6.9,11.4-6.3c0.1,0.4,0.1,0.8,0.2,1.2
		c0.6,2.5,1.8,4.3,3.2,5.7c0.8,1.2,1.8,2.2,2.8,3.2c-1.1,2.9-3.4,5.1-7.1,6.2C156.3,359.4,150.2,353.8,151.8,347.7z M165.6,342
		c2.1,0.8,3.6,2.5,4.4,4.5c0,0.6,0.1,1.1,0.1,1.7c-1-0.5-1.8-1.1-2.6-1.9C166.7,344.9,166.1,343.4,165.6,342z M152.9,357.1
		c3.2,2.5,8,3,11.7,1.6c2.4-1,4.7-3,6.1-5.4C169,361.6,157.6,363.9,152.9,357.1z M172.6,351.3c0-0.1,0-0.1,0-0.2
		c6.6,1.1,14.9-2.2,19.9-7.6C188.9,351,180.7,356,172.6,351.3z M194.2,338.4c-3.5,7.5-14.1,12.3-21.7,10.5c-0.1-0.5-0.1-1-0.3-1.5
		c-0.2-0.7-0.4-1.3-0.7-2c0,0,0-0.1-0.1-0.2c-1.3-2.8-3.7-4.6-6.4-5.4c-0.1-0.7-0.3-1.5-0.3-2.2c-0.4-5,1.7-9.2,4.9-12.6
		c1.4-1.5,3-2.7,4.7-3.6c7.8-4.1,16.5,1.6,19.1,9C194.5,333.1,194.6,335.8,194.2,338.4z M171.2,299.2c0.2-0.6,0.3-1.2,0.5-1.8
		c0.4-2,0.5-3.9,0.4-5.7c-1.1-12-14.3-20.3-25-16c-11.6,2-13.1,17.6-8.6,27.6C145.7,319.3,166.4,314.2,171.2,299.2z M139.4,286.4
		c3.2-10.4,15.5-12.2,23.7-6.8c5.5,3.6,7.6,10.4,6.8,16.6C162.2,310.9,133.6,305.3,139.4,286.4z M149.9,311
		c-5.3-1.1-8.8-6.1-10.5-10.9c-0.2-0.5-0.4-1.1-0.5-1.7c1.5,2.5,3.7,4.7,6.3,6.3c7.1,4.2,16.8,2.4,22.9-2.8
		C165,308.4,156.9,312.4,149.9,311z M151.6,244.8c1.5-2.4,2-5,1.8-7.4c-0.1-1-0.3-1.9-0.6-2.9c-0.5-1.5-1.2-2.8-2.2-4.1
		c2.1-3.2,3.5-6.8,3.9-10.7c0.2-2,0.1-4-0.3-6c-0.1-0.5-0.2-1-0.3-1.5c-2.5-9.6-11.6-16.7-20.7-19.6c-5.9-1.9-12.5-1.9-17.9,0.7
		c-20.6,4.7-9.6,44.1,11,48.8c1,4,3.3,7.5,7.5,8.9C139.4,252.9,148.5,249.8,151.6,244.8z M149.4,228.8c-0.2-0.2-0.4-0.4-0.6-0.6
		c0.8-0.7,1.5-1.5,2.2-2.3C150.5,226.9,150,227.8,149.4,228.8z M125.9,240.2c-0.2-0.1-0.5-0.1-0.7-0.2c-3.8-1.2-7.3-3.7-10.1-6.8
		c-1.5-1.6-2.9-3.6-4.1-5.9c3.4,4.4,7.9,7.1,13.2,8.1c0.6,0.1,1.2,0.2,1.8,0.3C125.8,237.3,125.8,238.9,125.9,240.2z M124.4,233.4
		c-7.5-1.5-13.3-7.3-15.9-15.5c-3-9.6,0.2-20.9,10.6-24c12.9-3.7,27.9,5.7,32.5,17.6c0.9,2.5,1.3,4.9,1.1,7.3
		c-1.1,3.1-3.1,5.7-5.6,7.9c-2.9-2.3-6.5-3.7-10.1-3.8c-2.9-1.1-5.2-0.1-7,2c-1.9,2.2-3.1,5.5-3.7,8.7
		C125.7,233.6,125.1,233.5,124.4,233.4z M145.4,228.1c-3.5,2.5-7.7,4.2-11.9,5.1c-1.9,0.4-3.7,0.6-5.5,0.5c0.5-2.9,1.6-5.5,3.4-7.3
		C136,223.4,141.4,224.9,145.4,228.1z M127.9,235.8c2,0.1,4.1-0.1,6.3-0.5c4.6-0.8,9.2-2.8,12.9-5.7c0.3,0.4,0.7,0.7,1,1.1
		c-3.2,4.1-7.6,7.3-12.2,9c-2.6,1-5.1,1.2-7.6,0.9C127.8,239.1,127.7,237.4,127.9,235.8z M129.3,242.5c4.1,0.2,8.4-0.9,12.9-3.9
		c2.7-1.8,5-3.8,6.9-6.2c1,1.6,1.6,3.4,1.8,5.1c-2.9,5.8-10.2,8.7-16.6,7.5C132.3,244.6,130.6,243.7,129.3,242.5z M130.2,245.5
		c0.1,0.1,0.3,0.2,0.4,0.3c5.9,3.6,15,1.3,19.8-3.6c-0.9,2-2.7,3.9-5.6,5.3C137.5,250.9,132.8,249.2,130.2,245.5z M186,192.4
		c0,0.1,0.1,0.1,0.1,0.2c1.9,5.2,7.9,5.3,11.8,1.9c2.7-2.3,3.4-5.6,2.9-8.8c-0.2-1.1-0.5-2.3-1-3.3c-1.6-3.6-4.6-6.4-7.6-6.8
		c-1.1-0.1-2.2,0.1-3.3,0.7c-4.5,3.9-4.1,10.4-3.4,14C185.6,191,185.8,191.7,186,192.4z M196.3,193.6c-2.7,2-5.4,2-7.2,0.4
		c1.1,0.2,2.3,0.1,3.7-0.3c2.5-0.7,4.7-2.4,6.2-4.6C198.7,190.9,197.8,192.4,196.3,193.6z M188.8,178.8c0.3-0.5,0.6-1.1,1-1.5
		c-0.1,0.1-0.2,0.2-0.2,0.3C189.3,178,189,178.4,188.8,178.8c4.3-3.5,9.1,1.3,10.1,6.6c-1,2.5-2.5,4.6-5.1,6.1
		c-2.3,1.4-4.4,1.4-6.2,0.5c-0.2-0.5-0.4-1.1-0.6-1.7C186.2,186.7,186.9,182.1,188.8,178.8z M155,189.3c0.6,0.9,1.3,1.7,2,2.4
		c5.1,4.7,14,4.8,18.2-1.6c2.1-3.2,2-6.7,0.7-9.9c-0.4-1-1-2-1.7-3c-1.4-2-3.3-3.8-5.3-5c-4.7-2.8-10.2-1.5-13.3,2
		c-4.1,2.7-3.1,10.3-0.9,14.3C154.8,189,154.9,189.2,155,189.3z M175.2,182.8c0.4,1.8,0.3,3.7-0.5,5.5c-2.5,5.4-8.7,6.4-13.5,4.3
		c2.1,0.1,4.4-0.4,6.7-1.5C171.3,189.5,173.9,186.4,175.2,182.8z M158.6,174.3c0.3-0.2,0.6-0.3,0.9-0.5c0.1,0,0.1-0.1,0.1-0.2
		c2.5-1.4,5.7-1.5,9.1,0.4c2.2,1.2,4.2,3.3,5.4,5.7c-0.5,3.2-1.9,6.1-5,8.8c-3.6,3.2-7.6,3.5-11.2,2c-0.3-0.3-0.7-0.6-1-1
		c-1.8-2.1-2.9-4.8-3.1-7.5C154.7,178.8,156.3,176,158.6,174.3z M195.7,225.4c-2-1.7-5.3-2.5-7.9-1.8c-0.3,0.1-0.6,0.2-0.9,0.3
		c-2.6,2.9-1.7,6.9-1.4,8.7c0.1,0.5,0.2,1,0.3,1.5c0.1,0.5,0.3,1,0.5,1.5c1.7,4,5.4,4.6,8.6,1.8c2.4-2,3.6-4.8,3.3-7.4
		c-0.1-0.8-0.3-1.5-0.7-2.2C197.2,227,196.6,226.1,195.7,225.4z M193.1,236.7c-2.4,1.8-4.1,0.2-5.1-1.8c1.1,0.2,2.2,0.3,3.4,0.1
		c1.9-0.3,3.6-1.1,4.9-2.3C195.7,234.2,194.5,235.7,193.1,236.7z M191.7,233.5c-1.5,0.4-2.9,0.3-4.3-0.1c0,0,0-0.1,0-0.1
		c-0.6-2.1-0.8-4.6-0.4-6.9c2.3-1.3,4.7-1.5,7.3,0.2c1.5,0.9,2.2,2.1,2.4,3.3C195.5,231.6,193.9,232.9,191.7,233.5z M198.3,240.7
		c-0.1-0.2-0.3-0.4-0.6-0.3c-3.5,0.6-6.5,2.4-8.9,4.7c-0.4-0.6-0.8-1.3-1.3-1.8c-4-4.9-10.7-6.5-16.4-4.9c-0.1,0-0.1-0.1-0.2-0.1
		c-0.3,0.1-0.5,0.2-0.7,0.3c-3.7,1.7-5.9,5.1-6.9,9c-0.9,3.7-0.8,7.8,0,11.4c0.3,1.1,0.6,2.2,1,3.3c0.2,0.5,0.4,0.9,0.6,1.4
		c3.2,6.9,11.3,9.9,17.8,7.4c3.5,8.4,12.9,13.4,22.2,11.7c6.7-1.2,11.4-6.4,13.8-12.5c0.6-1.5,1.1-3.1,1.4-4.7
		c0.5-2.4,0.6-4.9,0.4-7.2C219.2,247.1,208.6,239.1,198.3,240.7z M167.2,264.3c4.2,2.3,9.4,3.2,14.2,2.3c0.1,1,0.4,2,0.7,3
		C177,271.7,170.7,268.9,167.2,264.3z M181.2,263.8c0,0.4,0,0.9,0,1.3c-0.2,0-0.4,0.1-0.6,0.1c-1.1,0.2-2.3,0.3-3.5,0.4
		c-4.7,0.1-8.6-1.8-11.8-4.6c-2.7-6.2-1.3-13.1,2.4-18.5c6.1-4.5,14.6-3.8,19.7,3.6c0,0.1,0.1,0.1,0.1,0.2
		C183.4,251,181.2,257.7,181.2,263.8z M183,262.8c-0.2-5.8,1.9-11,5.5-15c1.9,3.8,2.1,8.4,0.9,12.5c-1.8,1.9-3.8,3.3-6.2,4.2
		C183,264,183,263.4,183,262.8z M183.4,266.2c1.5-0.4,2.9-1,4.3-1.8c-0.5,0.8-1,1.6-1.6,2.3c-0.4,0.5-0.8,0.9-1.2,1.3
		c-0.5-0.5-0.9-1.1-1.4-1.6C183.4,266.3,183.4,266.2,183.4,266.2z M202.2,281c-8.1,0.9-14.7-4.1-17.6-10.9c0,0,0,0,0,0
		c4.2,4.4,9.2,7.6,16,8.2c4.9,0.4,9.7-1.3,13.7-4.2C211.3,277.8,207.1,280.4,202.2,281z M217.6,268.4c-4.4,4.6-9.9,7.8-17,8
		c-6.5,0.1-10.8-3.1-14.6-7.2c0.5-0.4,0.9-0.8,1.4-1.2c1.8-1.8,3-4,3.7-6.4c0.4-1.4,0.7-2.9,0.8-4.4c0.2-3.6-0.6-7.4-2.2-10.6
		c0.5-0.5,1.1-1,1.7-1.5c0.2,0,0.4,0,0.6-0.1c7.7-4.1,15.1-3.6,21.5,2.7c3.8,3.7,5.5,9,5.4,14.2
		C218.8,264.1,218.3,266.3,217.6,268.4z M315.4,539.9c8.8-1.7,15.9-11.2,15.3-20.2c0-0.6-0.1-1.2-0.2-1.8c-0.3-1.4-0.7-2.7-1.2-3.9
		c-2.8-6.7-9.2-11.8-16.1-11.8c-15,0-19.3,13.1-19.7,20.8c0,0.2,0,0.3,0,0.5c0,0.4,0,0.9,0,1.3C294.2,535.3,305.8,541.7,315.4,539.9
		z M294.9,522.3c0-7.8,5.7-14.5,12.6-17.7c9.8-1.4,19.9,3.5,21.2,14.7c0.1,0.5,0.1,1,0.1,1.5c-0.6,2.1-1.6,4.2-3.3,6.1
		c-3.6,4-9.1,5.7-14.3,5.8c-5.4,0.2-10.9-1.6-14.7-5.5c-0.3-0.3-0.7-0.7-1-1.1C295.1,525,294.9,523.7,294.9,522.3z M296.2,528.3
		c3.4,3.5,8.3,5.8,14.2,6.1c7.3,0.4,13.8-3,17.5-8.2c-2,5.7-7.2,10.3-13,11.8C307,540.2,299.2,535.4,296.2,528.3z M333.4,566.2
		c2.1-2.6,3.2-6,3.2-9.3c0-1.3-0.2-2.7-0.5-4c-0.6-2.2-1.6-4.2-3.1-5.9c-6.9-7.6-20.8-2.8-23.7,6.3c-0.1,0.4-0.2,3.2-0.4,4.4
		c-0.1,0.5-0.1,0.9-0.1,1.4c-0.1,2.8,0.7,5.6,2.8,7.9C317.3,573.5,328.1,572.8,333.4,566.2z M314.5,549.1c5.2-4.4,12.5-6.1,17.7-0.3
		c1.7,1.9,2.5,4.4,2.6,7c-2.3,4.4-6.1,7.4-12.3,7.7c-4.7,0.2-8.9-1.5-12.2-4.3C310.4,555.6,312.2,551.9,314.5,549.1z M313.4,566.7
		c-1.9-1.7-2.8-3.8-3.1-6c3.2,2.8,7.4,4.4,12.2,4.5c4.7,0,8.9-2,11.8-5.2c-0.4,1.6-1.1,3.2-1.9,4.5
		C328.5,570.8,318.8,571.5,313.4,566.7z M344.6,585.3c-0.6-0.9-1.3-1.7-2.2-2.4c-3.4-2.7-8.6-2.5-10.3,1.3c-0.2,0.4-0.4,0.7-0.5,1.2
		c-0.3,1-0.3,2.1-0.1,3.1c0.1,0.6,0.3,1.2,0.5,1.8c0.2,0.5,0.4,1,0.6,1.4c2,4,6.9,6.7,10.8,3.6c2.7-2.1,3.3-5,2.5-7.6
		C345.5,586.9,345.1,586.1,344.6,585.3z M332.8,586.2c0.9-1.5,2-3.1,4-3.3c1.7-0.2,3.3,0.6,4.6,1.5c1.2,0.8,2,1.9,2.5,3
		c-1,1.7-2.8,2.9-5.6,3.1c-1.8,0.2-3.5-0.2-5.1-0.9C332.7,588.4,332.6,587.2,332.8,586.2z M342.4,593.9c-3.1,2.8-6.7,0.7-8.5-2.5
		c1.5,0.5,3.1,0.8,4.9,0.7c2.2-0.2,4.1-1.1,5.5-2.4C344.4,591.1,343.8,592.6,342.4,593.9z M357.3,506c-0.4-1.5-1.2-2.9-2-4.2
		c-1.1-1.7-2.5-3.2-4-4.2c-2.8-2.1-6.9-2.9-9.7-1.4c-0.1-0.1-0.6,0.3-0.8,0.5c-1.2,0.9-2.1,2.2-2.4,4.2c0,0,0,0,0,0
		c-0.9,2.1-1.4,4.4-1.4,6.7c0,0.8,0,1.6,0.2,2.3c0.3,2,1.1,4,2.4,5.6c4.6,5.4,14.2,3.6,17.3-2.6C358.1,510.8,358,508.3,357.3,506z
		 M339.1,501.7c0.2,0,0.2-3.4,4.8-4.4c2.1-0.5,4.3,0.5,5.9,1.6c2.4,1.6,4.4,4.2,5.4,7.1c-0.8,3.5-3.6,6-8.6,6.2
		c-3.5,0.1-6.2-1.1-8.2-3C338.1,506.8,338.4,504.1,339.1,501.7z M355.6,511.1c-1.4,6.2-11.6,7.7-15.2,2.9c-0.6-0.8-1-1.6-1.4-2.5
		c2.2,1.6,4.9,2.5,8.2,2.4c3.8-0.1,6.7-1.8,8.5-4.3C355.7,510.1,355.7,510.6,355.6,511.1z M341.1,477.6c1.7,3.1,7.4,3.8,9.4,0.7
		c1.1-1.7,1.2-3.7,0.7-5.6c-0.3-1-0.7-2-1.2-2.9c-1.6-2.5-4.2-4.1-6.7-3.1c-0.4,0.2-0.9,0.5-1.3,0.8c-0.5,0.7-1,1.6-1.3,2.4
		c-0.4,1-0.6,2-0.7,3c0,0.7,0,1.4,0.1,2.2C340.4,476,340.6,476.9,341.1,477.6z M349.4,476.9c-1.4,3.2-6,1.9-7.4-0.6
		c1.2,0.5,2.6,0.7,4.1,0.5c1.6-0.3,2.8-0.9,3.7-1.8C349.8,475.6,349.7,476.3,349.4,476.9z M341.6,470.3c0.2,0,0.3-0.1,0.4-0.2
		c2-2.3,4.1-2.9,6.1-0.2c0.6,0.8,1.1,1.9,1.4,3c-0.7,1.3-2.2,2.1-3.6,2.4c-1.8,0.4-3.4,0-4.6-0.9
		C341.1,473.1,341.2,471.7,341.6,470.3z"/>
	<path fill="#FFFFFF" d="M145.9,210.5c0.6,0.6,1.6,0,1.4-0.8c-2.2-7.9-18.4-19.6-26-12.1c-0.1,0.1,0,0.2,0.1,0.2
		C131.4,195.8,139.8,203.6,145.9,210.5z"/>
	<path fill="#FFFFFF" d="M144.5,230.5c-3.3-2.8-6.4-2.9-10.3-2.1c-0.2,0-0.2,0.4,0.1,0.4c3.2-0.3,6.7,2.2,8.8,4.3
		c2,2.1,2.9,4.8,4.7,7c0.3,0.4,1,0.2,1.1-0.3C149.9,236.3,147.1,232.6,144.5,230.5z"/>
	<path fill="#FFFFFF" d="M167.3,177.2c-1.6-1.1-3.2-1.4-5-1.9c-0.1,0-0.2,0.2-0.1,0.2c3,1.3,5.6,3.9,7.6,6.3
		c0.7,0.8,1.9-0.4,1.2-1.2C169.9,179.3,168.8,178.2,167.3,177.2z"/>
	<path fill="#FFFFFF" d="M191,179.5c-0.7-0.3-1,0.8-0.5,1.1c1.1,0.7,2,1.7,2.8,2.8c0.8,1.1,1.3,2.6,2.3,3.6c0.4,0.4,1.1,0.1,1.1-0.5
		c0-1.5-1.1-3.1-2-4.2C193.8,181.1,192.5,180.1,191,179.5z"/>
	<path fill="#FFFFFF" d="M181.5,248.4c0.6,0.5,1.6,0,1.4-0.8c-0.5-1.7-2.1-3-3.6-3.9c-1.7-1.1-3.5-1.2-5.4-1.4
		c-0.3,0-0.4,0.4-0.1,0.5c1.4,0.4,2.9,1.3,4.2,2.1C179.5,245.9,180.3,247.3,181.5,248.4z"/>
	<path fill="#FFFFFF" d="M199.7,244.5c-0.6-0.1-0.8,0.7-0.2,0.8c4.1,1.5,7.3,4.3,9.7,7.9c2.1,3.1,2.9,6.6,4.6,9.8
		c0.5,1,2.2,0.6,2.1-0.6C215,253.8,207.8,246.6,199.7,244.5z"/>
	<path fill="#FFFFFF" d="M192,228.9c-0.6-0.5-1.5-0.8-2.3-0.7c-0.4,0-0.5,0.6-0.1,0.7c0.7,0.1,1.1,0.6,1.6,1.1
		c0.4,0.5,0.6,1.3,1.3,1.5c0.4,0.1,0.6-0.1,0.8-0.4C193.5,230.2,192.5,229.4,192,228.9z"/>
	<path fill="#FFFFFF" d="M160.5,281.3c-2.8-1.9-6.7-2.8-10-1.8c-0.4,0.1-0.5,0.8,0,0.8c2.9,0.4,5.6,1.1,8.1,2.7c1.6,1,2.9,2.4,3.9,4
		c0.8,1.1,1.1,2.2,2.2,3c0.4,0.3,1.2,0,1.3-0.5C166.6,286.1,163,283,160.5,281.3z"/>
	<path fill="#FFFFFF" d="M178,323.2c-0.5,0-0.7,0.9-0.1,0.9c3.4,0.5,5.7,3,7.4,5.8c1.7,2.8,1.6,5.6,2.5,8.6c0.2,0.6,1.2,0.9,1.5,0.2
		c1.5-3.2-0.9-7.7-2.7-10.4C184.6,325.5,181.6,323.1,178,323.2z"/>
	<path fill="#FFFFFF" d="M162,344.5c-1.2-0.4-2.6-0.5-3.8-0.4c-0.7,0-0.7,1,0,1c1.1,0.1,2.1,0.3,3.1,0.7c0.9,0.3,1.7,1,2.7,1.2
		c0.5,0.1,0.8-0.6,0.5-0.9C164,345.2,162.9,344.9,162,344.5z"/>
	<path fill="#FFFFFF" d="M326.3,520.9c-0.1-3.6-2.9-6.9-5.5-9.1c-3-2.6-6.4-3.4-10.2-4.2c-0.5-0.1-0.7,0.6-0.2,0.7
		c3,1.1,6.1,3.2,8.5,5.3c2.6,2.2,3.4,5,5.1,7.8C324.6,522.5,326.3,522.1,326.3,520.9z"/>
	<path fill="#FFFFFF" d="M322.9,547.6c-0.8-0.2-1.4,1-0.6,1.4c1.6,0.8,3,2.1,4.2,3.4c0.6,0.7,1.1,1.4,1.6,2.2
		c0.5,0.9,0.7,1.7,1.6,2.3c0.6,0.5,1.6,0,1.8-0.7c0.5-1.9-1.4-4.2-2.6-5.5C327.3,549,325.2,548,322.9,547.6z"/>
	<path fill="#FFFFFF" d="M349.6,501.8c-1.1-1.4-2.8-2.2-4.5-2.4c-0.6-0.1-0.8,0.7-0.2,0.9c1.5,0.5,2.8,1.4,3.8,2.7
		c0.5,0.6,0.8,1.3,1,2c0.2,0.7,0.2,1.3,0.9,1.7c0.2,0.1,0.5,0,0.6-0.2C352.1,505.3,350.3,502.8,349.6,501.8z"/>
	<path fill="#FFFFFF" d="M344.7,470.5c0.1,0.1,0.2,0.1,0.3,0.2c0.3,0.2,0.1-0.1,0.2,0.3c0.1,0.3,0.3,0.5,0.5,0.8
		c0.1,0.2,0.3,0.4,0.4,0.6c0.2,0.4,0.4,0.6,0.8,0.8c0.5,0.4,1.3-0.1,1.3-0.8c0-0.8-0.5-1.5-1.1-2c-0.3-0.2-0.7-0.6-1.1-0.6
		c-0.4,0-0.1,0.1-0.3,0c-0.2-0.1-0.4-0.2-0.6-0.2C344.5,469.4,344.2,470.3,344.7,470.5z"/>
	<path fill="#FFFFFF" d="M337.9,585.2c-1.2,0-1.5,1.9-0.3,2.1c0.2,0,0.3,0.1,0.3,0.3c0.4,1.4,2.5,0.8,2.2-0.6
		C339.9,585.9,339,585.2,337.9,585.2z"/>
</g>
</svg>
